<svg width="20" height="21" viewBox="0 0 20 21" fill="none" xmlns="http://www.w3.org/2000/svg">
<path d="M17.7602 7.46338C17.6442 7.34672 17.5063 7.2542 17.3543 7.19117C17.2024 7.12815 17.0395 7.09586 16.875 7.09619H14.375V6.47119C14.375 5.31087 13.9141 4.19807 13.0936 3.3776C12.2731 2.55713 11.1603 2.09619 10 2.09619C8.83968 2.09619 7.72688 2.55713 6.90641 3.3776C6.08594 4.19807 5.625 5.31087 5.625 6.47119V7.09619H3.125C2.79348 7.09619 2.47554 7.22789 2.24112 7.46231C2.0067 7.69673 1.875 8.01467 1.875 8.34619V16.7837C1.875 18.3071 3.16406 19.5962 4.6875 19.5962H15.3125C16.0494 19.5964 16.7572 19.3083 17.2844 18.7935C17.5497 18.5403 17.761 18.2361 17.9055 17.8991C18.0499 17.562 18.1246 17.1992 18.125 16.8325V8.34619C18.1255 8.18224 18.0935 8.01981 18.0309 7.86829C17.9683 7.71676 17.8763 7.57915 17.7602 7.46338ZM12.5 13.9712H10.625V15.8462C10.625 16.012 10.5592 16.1709 10.4419 16.2881C10.3247 16.4053 10.1658 16.4712 10 16.4712C9.83424 16.4712 9.67527 16.4053 9.55806 16.2881C9.44085 16.1709 9.375 16.012 9.375 15.8462V13.9712H7.5C7.33424 13.9712 7.17527 13.9053 7.05806 13.7881C6.94085 13.6709 6.875 13.512 6.875 13.3462C6.875 13.1804 6.94085 13.0215 7.05806 12.9042C7.17527 12.787 7.33424 12.7212 7.5 12.7212H9.375V10.8462C9.375 10.6804 9.44085 10.5215 9.55806 10.4043C9.67527 10.287 9.83424 10.2212 10 10.2212C10.1658 10.2212 10.3247 10.287 10.4419 10.4043C10.5592 10.5215 10.625 10.6804 10.625 10.8462V12.7212H12.5C12.6658 12.7212 12.8247 12.787 12.9419 12.9042C13.0592 13.0215 13.125 13.1804 13.125 13.3462C13.125 13.512 13.0592 13.6709 12.9419 13.7881C12.8247 13.9053 12.6658 13.9712 12.5 13.9712ZM13.125 7.09619H6.875V6.47119C6.875 5.64239 7.20424 4.84753 7.79029 4.26148C8.37634 3.67543 9.1712 3.34619 10 3.34619C10.8288 3.34619 11.6237 3.67543 12.2097 4.26148C12.7958 4.84753 13.125 5.64239 13.125 6.47119V7.09619Z" fill="black"/>
</svg>
