<svg width="14" height="16" viewBox="0 0 14 16" fill="none" xmlns="http://www.w3.org/2000/svg">
<path fill-rule="evenodd" clip-rule="evenodd" d="M9.5 3.5C9.5 2.83696 9.23661 2.20107 8.76777 1.73223C8.29893 1.26339 7.66304 1 7 1C6.33696 1 5.70107 1.26339 5.23223 1.73223C4.76339 2.20107 4.5 2.83696 4.5 3.5V4H9.5V3.5ZM10.5 3.5V4H14V14C14 14.5304 13.7893 15.0391 13.4142 15.4142C13.0391 15.7893 12.5304 16 12 16H2C1.46957 16 0.960859 15.7893 0.585786 15.4142C0.210714 15.0391 0 14.5304 0 14V4H3.5V3.5C3.5 2.57174 3.86875 1.6815 4.52513 1.02513C5.1815 0.368749 6.07174 0 7 0C7.92826 0 8.8185 0.368749 9.47487 1.02513C10.1313 1.6815 10.5 2.57174 10.5 3.5Z" fill="black"/>
</svg>
