<svg width="16" height="19" viewBox="0 0 16 19" fill="none" xmlns="http://www.w3.org/2000/svg">
<path d="M8.04628 8.78885C10.412 8.78885 12.3299 6.87102 12.3299 4.50526C12.3299 2.13951 10.412 0.22168 8.04628 0.22168C5.68052 0.22168 3.7627 2.13951 3.7627 4.50526C3.7627 6.87102 5.68052 8.78885 8.04628 8.78885Z" fill="black"/>
<path d="M15.7616 13.5891C14.7783 12.5237 13.5851 11.6735 12.257 11.0919C10.929 10.5104 9.49487 10.2102 8.04507 10.2102C6.59527 10.2102 5.16118 10.5104 3.83312 11.0919C2.50506 11.6735 1.3118 12.5237 0.3285 13.5891C0.176192 13.7566 0.0911933 13.9746 0.0898438 14.201V17.8726C0.0930616 18.114 0.191188 18.3443 0.362983 18.5138C0.534777 18.6833 0.766415 18.7783 1.00775 18.7783H15.0824C15.3258 18.7783 15.5593 18.6816 15.7314 18.5095C15.9036 18.3373 16.0003 18.1039 16.0003 17.8604V14.1888C15.996 13.9666 15.9112 13.7535 15.7616 13.5891Z" fill="black"/>
</svg>
