<svg width="23" height="23" viewBox="0 0 23 23" fill="none" xmlns="http://www.w3.org/2000/svg">
<path d="M20.1252 20.125L15.9632 15.9629M15.9632 15.9629C16.6751 15.251 17.2398 14.4058 17.6251 13.4756C18.0104 12.5454 18.2087 11.5484 18.2087 10.5416C18.2087 9.53479 18.0104 8.53783 17.6251 7.60764C17.2398 6.67745 16.6751 5.83226 15.9632 5.12033C15.2512 4.40839 14.406 3.84366 13.4758 3.45836C12.5457 3.07307 11.5487 2.87476 10.5419 2.87476C9.53504 2.87476 8.53807 3.07307 7.60788 3.45836C6.6777 3.84366 5.83251 4.40839 5.12057 5.12033C3.68276 6.55814 2.875 8.50824 2.875 10.5416C2.875 12.575 3.68276 14.5251 5.12057 15.9629C6.55839 17.4007 8.50849 18.2085 10.5419 18.2085C12.5752 18.2085 14.5253 17.4007 15.9632 15.9629Z" stroke="black" stroke-width="2" stroke-linecap="round" stroke-linejoin="round"/>
</svg>
