<svg width="60" height="26" viewBox="0 0 60 26" fill="none" xmlns="http://www.w3.org/2000/svg">
<g clip-path="url(#clip0_87_9493)">
<path d="M11.0755 3.44236C10.3796 4.29735 9.26622 4.97171 8.15281 4.87537C8.01364 3.71933 8.55874 2.49104 9.19664 1.73239C9.89252 0.853313 11.1103 0.227123 12.0961 0.178955C12.2121 1.38317 11.7598 2.56329 11.0755 3.44236ZM12.0845 5.10417C10.4724 5.00784 9.09225 6.0555 8.32678 6.0555C7.54972 6.0555 6.37831 5.15234 5.10253 5.17643C3.44401 5.20051 1.90147 6.17592 1.05482 7.72935C-0.684887 10.8362 0.602495 15.4363 2.28421 17.9651C3.10767 19.2175 4.0935 20.5903 5.39248 20.5421C6.62187 20.494 7.10899 19.7112 8.59354 19.7112C10.0897 19.7112 10.5188 20.5421 11.8178 20.5181C13.1632 20.494 14.0098 19.2657 14.8333 18.0133C15.7727 16.5923 16.1555 15.2075 16.1787 15.1352C16.1555 15.1112 13.5807 14.0876 13.5575 11.0048C13.5343 8.42779 15.5872 7.1995 15.6799 7.12725C14.5201 5.34502 12.7108 5.15234 12.0845 5.10417ZM21.3978 1.61197V20.3856H24.2045V13.9672H28.0898C31.6388 13.9672 34.1324 11.4383 34.1324 7.77752C34.1324 4.11672 31.6852 1.61197 28.1826 1.61197H21.3978ZM24.2045 4.06855H27.4403C29.8759 4.06855 31.2677 5.41727 31.2677 7.78956C31.2677 10.1619 29.8759 11.5226 27.4287 11.5226H24.2045V4.06855ZM39.2587 20.5301C41.0216 20.5301 42.657 19.6029 43.3992 18.1337H43.4572V20.3856H46.0552V11.0409C46.0552 8.33146 43.9675 6.58535 40.7549 6.58535C37.7742 6.58535 35.5706 8.35554 35.4894 10.788H38.0177C38.2265 9.632 39.2587 8.87335 40.6737 8.87335C42.3902 8.87335 43.3528 9.70426 43.3528 11.2336V12.2692L39.8502 12.486C36.5912 12.6907 34.8283 14.0755 34.8283 16.484C34.8283 18.9165 36.6492 20.5301 39.2587 20.5301ZM40.0126 18.3023C38.5165 18.3023 37.5654 17.5557 37.5654 16.4117C37.5654 15.2316 38.4817 14.5452 40.233 14.4368L43.3528 14.2321V15.2918C43.3528 17.0499 41.9147 18.3023 40.0126 18.3023ZM49.523 25.4915C52.2601 25.4915 53.5475 24.4077 54.6725 21.1202L59.6017 6.76598H56.7486L53.4431 17.8568H53.3851L50.0797 6.76598H47.1454L51.9006 20.4338L51.6454 21.2647C51.2163 22.6736 50.5204 23.2155 49.2794 23.2155C49.0591 23.2155 48.6299 23.1914 48.456 23.1673V25.4192C48.6183 25.4674 49.3142 25.4915 49.523 25.4915Z" fill="#9E9E9E"/>
</g>
<defs>
<clipPath id="clip0_87_9493">
<rect width="59.3751" height="25" fill="white" transform="translate(0.21875 0.179443)"/>
</clipPath>
</defs>
</svg>
