<svg width="55" height="26" viewBox="0 0 55 26" fill="none" xmlns="http://www.w3.org/2000/svg">
<g clip-path="url(#clip0_87_9495)">
<path d="M25.8711 13.1063V19.2087H23.8203V4.11682H29.1524C30.4512 4.11682 31.6817 4.57614 32.6387 5.42916C33.5957 6.21656 34.0742 7.39766 34.0742 8.64438C34.0742 9.8911 33.5957 11.0066 32.6387 11.8596C31.6817 12.7126 30.5195 13.1719 29.1524 13.1719L25.8711 13.1063ZM25.8711 5.95409V11.2034H29.2891C30.041 11.2034 30.793 10.941 31.2715 10.416C32.3653 9.43178 32.3653 7.79136 31.3399 6.80711L31.2715 6.74149C30.7246 6.21656 30.041 5.88848 29.2891 5.95409H25.8711Z" fill="#9E9E9E"/>
<path d="M38.791 8.578C40.2949 8.578 41.457 8.9717 42.3457 9.75911C43.2344 10.5465 43.6445 11.5964 43.6445 12.9087V19.2079H41.7305V17.7644H41.6621C40.8418 18.9455 39.6797 19.536 38.3125 19.536C37.1504 19.536 36.125 19.2079 35.3047 18.5518C34.5527 17.8956 34.0742 16.977 34.0742 15.9927C34.0742 14.9428 34.4844 14.0898 35.3047 13.4336C36.125 12.7775 37.2871 12.515 38.6543 12.515C39.8848 12.515 40.8418 12.7119 41.5938 13.1712V12.7119C41.5938 12.0557 41.3203 11.3995 40.7734 11.0058C40.2266 10.5465 39.543 10.284 38.791 10.284C37.6289 10.284 36.7402 10.7434 36.125 11.662L34.3477 10.6121C35.4414 9.23417 36.877 8.578 38.791 8.578ZM36.1934 16.0583C36.1934 16.5833 36.4668 17.0426 36.877 17.305C37.3555 17.6331 37.9024 17.83 38.4492 17.83C39.2695 17.83 40.0899 17.5019 40.7051 16.9113C41.3887 16.3208 41.7305 15.599 41.7305 14.8116C41.1152 14.3523 40.2266 14.0898 39.0645 14.0898C38.2441 14.0898 37.5606 14.2867 37.0137 14.6804C36.4668 15.0085 36.1934 15.4678 36.1934 16.0583Z" fill="#9E9E9E"/>
<path d="M54.7188 8.90674L47.9512 23.8018H45.9004L48.4297 18.618L43.9863 8.97235H46.1738L49.3867 16.3871H49.4551L52.5996 8.97235H54.7188V8.90674Z" fill="#9E9E9E"/>
<path d="M17.7363 11.7936C17.7363 11.2031 17.668 10.6125 17.5996 10.022H9.05469V13.3684H13.9082C13.7031 14.4183 13.0879 15.4026 12.1309 15.9931V18.1585H15.0703C16.7793 16.6493 17.7363 14.4183 17.7363 11.7936Z" fill="#9E9E9E"/>
<path d="M9.0547 20.259C11.5156 20.259 13.5664 19.4716 15.0703 18.1593L12.1309 15.9939C11.3106 16.5189 10.2852 16.847 9.0547 16.847C6.73048 16.847 4.67969 15.3378 3.9961 13.238H0.988281V15.469C2.56055 18.4218 5.63673 20.259 9.0547 20.259Z" fill="#9E9E9E"/>
<path d="M3.99757 13.2381C3.58741 12.1882 3.58741 11.0071 3.99757 9.89162V7.66064H0.989748C-0.309083 10.0885 -0.309083 12.9756 0.989748 15.469L3.99757 13.2381Z" fill="#9E9E9E"/>
<path d="M9.05666 6.34761C10.3555 6.34761 11.586 6.80693 12.543 7.65995L15.1407 5.16651C13.5 3.72294 11.3125 2.86992 9.12502 2.93554C5.70704 2.93554 2.5625 4.77281 1.05859 7.72556L4.06641 9.95653C4.68165 7.8568 6.73243 6.34761 9.05666 6.34761Z" fill="#9E9E9E"/>
</g>
<defs>
<clipPath id="clip0_87_9495">
<rect width="54.6876" height="25" fill="white" transform="translate(0.03125 0.179443)"/>
</clipPath>
</defs>
</svg>
