<svg width="81" height="26" viewBox="0 0 81 26" fill="none" xmlns="http://www.w3.org/2000/svg">
<g clip-path="url(#clip0_87_9484)">
<path fill-rule="evenodd" clip-rule="evenodd" d="M7.27578 17.1962C6.85533 16.9242 6.41552 16.7135 5.95743 16.5632C5.49934 16.4134 5.02028 16.3377 4.52025 16.3377C4.19335 16.3377 3.89388 16.3723 3.62289 16.4414C3.35137 16.5105 3.1191 16.6104 2.92501 16.742C2.73145 16.8731 2.58036 17.0306 2.47283 17.2138C2.3653 17.3976 2.31153 17.6038 2.31153 17.8331C2.31153 18.0427 2.35831 18.2215 2.45186 18.3696C2.54542 18.5177 2.67983 18.6428 2.85511 18.7448C3.03039 18.8474 3.24438 18.9319 3.49654 18.9993C3.74924 19.0663 4.03421 19.1233 4.35197 19.171L5.03211 19.2638C5.42944 19.3208 5.81764 19.4091 6.19561 19.5287C6.57413 19.6477 6.91178 19.8145 7.20857 20.0295C7.50536 20.244 7.74408 20.5139 7.92366 20.8376C8.10378 21.1618 8.19357 21.5556 8.19357 22.0181C8.19357 22.5282 8.08819 22.9791 7.87796 23.3697C7.66774 23.7608 7.38224 24.09 7.02254 24.3566C6.6623 24.6237 6.24562 24.8267 5.77086 24.9649C5.2961 25.1037 4.79285 25.1723 4.25949 25.1723C3.92775 25.1723 3.58311 25.1437 3.22556 25.0861C2.86801 25.0291 2.51477 24.9446 2.1669 24.8322C1.8185 24.7202 1.48568 24.5804 1.16792 24.4136C0.850163 24.2463 0.565202 24.051 0.3125 23.8266L1.17491 22.5392C1.3432 22.6966 1.54536 22.8425 1.7814 22.9758C2.01743 23.1091 2.27067 23.226 2.54219 23.3264C2.81317 23.4268 3.09491 23.5041 3.38686 23.559C3.67881 23.6138 3.96754 23.6412 4.25304 23.6412C4.57563 23.6412 4.87565 23.6083 5.15362 23.5408C5.43159 23.4739 5.67354 23.3763 5.87947 23.2479C6.08485 23.119 6.24723 22.9632 6.36659 22.7795C6.48595 22.5957 6.54563 22.3894 6.54563 22.1607C6.54563 21.7696 6.35745 21.4717 5.98109 21.266C5.60472 21.0608 5.05684 20.9083 4.33691 20.8085L3.57289 20.701C3.20836 20.6483 2.85188 20.5627 2.50348 20.4437C2.15507 20.3247 1.8443 20.1568 1.57117 19.9396C1.2975 19.7229 1.07759 19.4514 0.911995 19.1244C0.745857 18.798 0.663057 18.4009 0.663057 17.9335C0.663057 17.4327 0.764675 16.9878 0.968449 16.5994C1.17169 16.2105 1.44858 15.8841 1.79914 15.6197C2.1497 15.3547 2.55993 15.1534 3.02931 15.0152C3.49923 14.8764 4.00033 14.8078 4.53316 14.8078C5.24825 14.8078 5.89398 14.9044 6.47143 15.0975C7.04888 15.2906 7.58494 15.5539 8.08066 15.8879L7.27578 17.1962ZM12.625 17.962C13.0922 17.962 13.5213 18.0492 13.9116 18.2231C14.302 18.3976 14.6359 18.6428 14.9144 18.9599C15.1923 19.2769 15.4096 19.6565 15.5665 20.0976C15.723 20.5386 15.801 21.0263 15.801 21.5606C15.801 21.656 15.7988 21.7509 15.794 21.8464C15.7891 21.9418 15.7822 22.0323 15.773 22.1184H10.8093C10.8561 22.4284 10.9426 22.6928 11.0685 22.9122C11.1948 23.1316 11.347 23.3116 11.5244 23.4525C11.7024 23.593 11.9008 23.6972 12.1207 23.7636C12.34 23.8305 12.5691 23.8634 12.8078 23.8634C13.1444 23.8634 13.482 23.8009 13.8208 23.6741C14.1595 23.548 14.4692 23.3702 14.7498 23.141L15.4789 24.2068C15.0676 24.5645 14.6316 24.8151 14.1713 24.9578C13.7105 25.1009 13.2256 25.1728 12.7164 25.1728C12.2115 25.1728 11.7486 25.0867 11.3281 24.9155C10.9077 24.7438 10.5453 24.5003 10.2415 24.186C9.93775 23.8711 9.70172 23.4915 9.53343 23.0482C9.36514 22.6045 9.28073 22.1113 9.28073 21.5671C9.28073 21.0328 9.36245 20.5441 9.52644 20.1008C9.68989 19.6571 9.91893 19.2769 10.2136 18.9599C10.5082 18.6428 10.8593 18.3976 11.269 18.2231C11.6776 18.0492 12.1298 17.962 12.625 17.962ZM12.597 19.2923C12.3352 19.2923 12.1029 19.3329 11.8997 19.4135C11.6964 19.4947 11.5212 19.6104 11.3738 19.7607C11.2271 19.9105 11.1061 20.0899 11.0131 20.2972C10.9195 20.5046 10.8539 20.7322 10.8168 20.9802H14.3014C14.2219 20.4459 14.0347 20.0312 13.7406 19.7355C13.4455 19.4404 13.0643 19.2923 12.597 19.2923ZM20.3867 17.962C20.8916 17.962 21.3609 18.0536 21.7959 18.2374C22.2309 18.4212 22.5976 18.6938 22.8971 19.0564L21.9572 20.0795C21.719 19.8507 21.4712 19.6752 21.2142 19.5539C20.9572 19.4327 20.6674 19.3718 20.3448 19.3718C20.0641 19.3718 19.8023 19.4256 19.5592 19.5325C19.3162 19.6395 19.106 19.7898 18.928 19.9829C18.7501 20.176 18.6113 20.4075 18.5108 20.6768C18.4102 20.9467 18.3597 21.2435 18.3597 21.5671C18.3597 21.8913 18.4102 22.1887 18.5108 22.458C18.6113 22.7273 18.7506 22.9588 18.928 23.1519C19.1054 23.345 19.3157 23.4948 19.5592 23.6023C19.8023 23.7098 20.0641 23.763 20.3448 23.763C20.6674 23.763 20.9685 23.695 21.2491 23.559C21.5298 23.4235 21.7776 23.2529 21.9922 23.0477L22.8965 24.0779C22.5879 24.4399 22.2191 24.7131 21.7889 24.8969C21.3588 25.0806 20.8916 25.1723 20.3867 25.1723C19.8539 25.1723 19.37 25.0806 18.9355 24.8969C18.5011 24.7131 18.1291 24.4602 17.821 24.1388C17.5124 23.8173 17.2742 23.4366 17.1059 22.9978C16.9376 22.5595 16.8532 22.0822 16.8532 21.5671C16.8532 21.052 16.9376 20.5754 17.1059 20.1365C17.2742 19.6982 17.5124 19.3175 17.821 18.9961C18.1296 18.6741 18.5011 18.4217 18.9355 18.238C19.3694 18.0536 19.8539 17.962 20.3867 17.962ZM30.4125 22.0894C30.4125 22.633 30.3238 23.1004 30.1464 23.4909C29.9684 23.8821 29.7351 24.2019 29.4453 24.4498C29.1555 24.6978 28.8237 24.8799 28.4495 24.9967C28.0753 25.1136 27.6919 25.1723 27.2994 25.1723C26.9069 25.1723 26.5236 25.1136 26.1499 24.9967C25.7757 24.8799 25.4429 24.6978 25.1509 24.4498C24.859 24.2019 24.6251 23.8821 24.4498 23.4909C24.2745 23.1004 24.1869 22.6324 24.1869 22.0894V18.1409H25.659V21.9533C25.659 22.2825 25.701 22.5628 25.7854 22.7937C25.8698 23.0252 25.9854 23.2123 26.1327 23.356C26.28 23.4986 26.4542 23.6023 26.6548 23.667C26.8559 23.7312 27.0709 23.7636 27.2994 23.7636C27.5285 23.7636 27.7435 23.7312 27.9446 23.667C28.1457 23.6028 28.3199 23.4992 28.4667 23.356C28.614 23.2128 28.7296 23.0252 28.8135 22.7937C28.8979 22.5628 28.9399 22.2825 28.9399 21.9533V18.1409H30.412V22.0894H30.4125ZM35.7617 17.962C35.9865 17.962 36.1881 17.9774 36.3682 18.0087C36.5483 18.0394 36.7225 18.0887 36.8908 18.1551L36.5403 19.6362C36.386 19.555 36.2058 19.493 36.0004 19.4497C35.7945 19.4064 35.6031 19.3855 35.4257 19.3855C35.1918 19.3855 34.9773 19.4261 34.781 19.5068C34.5848 19.5879 34.4165 19.707 34.2762 19.865C34.1358 20.0224 34.0261 20.2149 33.9466 20.4442C33.867 20.673 33.8272 20.933 33.8272 21.2243V24.994H32.3621V18.1414H33.8132V18.9138C34.0374 18.5846 34.3159 18.3438 34.6477 18.1913C34.9789 18.0383 35.3504 17.962 35.7617 17.962ZM40.684 17.962C41.1513 17.962 41.5803 18.0492 41.9707 18.2231C42.361 18.3976 42.6949 18.6428 42.9734 18.9599C43.2514 19.2769 43.4686 19.6565 43.6256 20.0976C43.7815 20.5386 43.86 21.0263 43.86 21.5606C43.86 21.656 43.8579 21.7509 43.8536 21.8464C43.8487 21.9418 43.8417 22.0323 43.8321 22.1184H38.8683C38.9151 22.4284 39.0017 22.6928 39.1275 22.9122C39.2538 23.1316 39.4055 23.3116 39.5834 23.4525C39.7614 23.593 39.9598 23.6972 40.1797 23.7636C40.3991 23.8305 40.6281 23.8634 40.8668 23.8634C41.2034 23.8634 41.5411 23.8009 41.8798 23.6741C42.2191 23.548 42.5282 23.3702 42.8089 23.141L43.538 24.2068C43.1272 24.5645 42.6911 24.8151 42.2309 24.9578C41.7701 25.1009 41.2851 25.1728 40.776 25.1728C40.2711 25.1728 39.8082 25.0867 39.3877 24.9155C38.9673 24.7438 38.6049 24.5003 38.3011 24.186C37.9973 23.8711 37.7613 23.4915 37.593 23.0482C37.4247 22.6045 37.3403 22.1113 37.3403 21.5671C37.3403 21.0328 37.422 20.5441 37.5855 20.1008C37.7489 19.6571 37.978 19.2769 38.2726 18.9599C38.5673 18.6428 38.9189 18.3976 39.3275 18.2231C39.7361 18.0492 40.1883 17.962 40.684 17.962ZM40.6555 19.2923C40.3937 19.2923 40.1614 19.3329 39.9576 19.4135C39.7544 19.4947 39.5791 19.6104 39.4318 19.7607C39.285 19.9105 39.1641 20.0899 39.071 20.2972C38.9775 20.5046 38.9119 20.7322 38.8748 20.9802H42.3599C42.2798 20.4459 42.0933 20.0312 41.7986 19.7355C41.5045 19.4404 41.1233 19.2923 40.6555 19.2923ZM50.184 14.793C50.6184 14.793 51.0394 14.8407 51.4459 14.9362C51.8529 15.0316 52.2314 15.1699 52.5814 15.3514C52.932 15.5325 53.2503 15.753 53.5353 16.013C53.8202 16.273 54.0589 16.5649 54.2504 16.889L52.9256 17.7903C52.6261 17.3422 52.2422 16.9889 51.7717 16.7316C51.3018 16.4743 50.7728 16.3454 50.184 16.3454C49.6834 16.3454 49.2211 16.4337 48.7952 16.6098C48.3699 16.7865 48.0032 17.0344 47.6946 17.3537C47.3865 17.6735 47.1446 18.0575 46.9693 18.5056C46.794 18.9538 46.7064 19.4475 46.7064 19.9862C46.7064 20.5254 46.794 21.0191 46.9693 21.4668C47.1446 21.9149 47.3865 22.2989 47.6946 22.6187C48.0032 22.9385 48.3699 23.1859 48.7952 23.3626C49.2211 23.5392 49.6834 23.627 50.184 23.627C50.7679 23.627 51.2927 23.5008 51.7577 23.2479C52.2234 22.995 52.6099 22.6423 52.9186 22.1892L54.209 23.1547C53.9982 23.469 53.7519 23.7504 53.4691 23.9983C53.1863 24.2463 52.8729 24.4586 52.5293 24.6352C52.1857 24.8119 51.8164 24.9468 51.4217 25.0395C51.0265 25.1322 50.6141 25.1794 50.184 25.1794C49.4313 25.1794 48.7393 25.0494 48.1086 24.7894C47.4774 24.5299 46.9354 24.1684 46.4822 23.706C46.0284 23.2435 45.6757 22.695 45.423 22.0608C45.1708 21.4262 45.0445 20.735 45.0445 19.9862C45.0445 19.2374 45.1708 18.5462 45.423 17.9116C45.6752 17.2774 46.0284 16.7289 46.4822 16.2664C46.9354 15.804 47.4774 15.4431 48.1086 15.183C48.7398 14.923 49.4313 14.793 50.184 14.793ZM58.8431 17.962C59.3619 17.962 59.8421 18.0536 60.2835 18.2374C60.7254 18.4212 61.1077 18.6741 61.4298 18.9955C61.7524 19.317 62.0045 19.6977 62.1873 20.136C62.3696 20.5748 62.4605 21.052 62.4605 21.5666C62.4605 22.0817 62.3696 22.5589 62.1873 22.9972C62.0045 23.4361 61.7524 23.8168 61.4298 24.1382C61.1072 24.4602 60.7254 24.7126 60.2835 24.8963C59.8421 25.0801 59.3619 25.1717 58.8431 25.1717C58.3242 25.1717 57.8436 25.0801 57.4021 24.8963C56.9602 24.7126 56.579 24.4597 56.2591 24.1382C55.9386 23.8168 55.6881 23.4361 55.5053 22.9972C55.323 22.5589 55.2321 22.0817 55.2321 21.5666C55.2321 21.0515 55.323 20.5748 55.5053 20.136C55.6881 19.6977 55.9386 19.317 56.2591 18.9955C56.579 18.6735 56.9602 18.4212 57.4021 18.2374C57.8436 18.0536 58.3242 17.962 58.8431 17.962ZM58.8431 19.3713C58.5436 19.3713 58.2656 19.425 58.0086 19.532C57.7516 19.639 57.5296 19.7893 57.343 19.9824C57.1559 20.1755 57.0086 20.4069 56.901 20.6763C56.7935 20.9462 56.7397 21.2429 56.7397 21.5666C56.7397 21.8908 56.7935 22.1881 56.901 22.4575C57.0091 22.7268 57.1559 22.9583 57.343 23.1514C57.5296 23.3445 57.7522 23.4942 58.0086 23.6017C58.2662 23.7093 58.5436 23.7625 58.8431 23.7625C59.142 23.7625 59.42 23.7087 59.677 23.6017C59.934 23.4942 60.1571 23.3445 60.3464 23.1514C60.5362 22.9583 60.684 22.7268 60.7921 22.4575C60.8996 22.1881 60.9534 21.8908 60.9534 21.5666C60.9534 21.2429 60.8996 20.9456 60.7921 20.6763C60.684 20.4069 60.5362 20.1755 60.3464 19.9824C60.1571 19.7893 59.934 19.639 59.677 19.532C59.42 19.425 59.142 19.3713 58.8431 19.3713ZM66.8709 17.962C67.3527 17.962 67.7661 18.0536 68.1119 18.2374C68.4576 18.4212 68.7474 18.6653 68.9818 18.9708V14.6926H70.4469V24.9934H68.9818V24.1711C68.7479 24.4761 68.4581 24.7197 68.1119 24.9007C67.7661 25.0817 67.3527 25.1728 66.8709 25.1728C66.3989 25.1728 65.9596 25.0834 65.5531 24.9046C65.1461 24.7257 64.7912 24.4767 64.4875 24.1569C64.1831 23.8376 63.945 23.4575 63.7724 23.0164C63.5987 22.5754 63.5132 22.0921 63.5132 21.5677C63.5132 21.0433 63.5992 20.5605 63.7724 20.1195C63.945 19.6785 64.1831 19.2978 64.4875 18.9785C64.7912 18.6592 65.1461 18.4102 65.5531 18.2314C65.9596 18.0514 66.3989 17.962 66.8709 17.962ZM67.0462 19.3713C66.7284 19.3713 66.4446 19.4294 66.194 19.5463C65.944 19.6636 65.7327 19.8205 65.5596 20.0186C65.3864 20.216 65.2536 20.4486 65.1601 20.7158C65.0665 20.9829 65.0198 21.2665 65.0198 21.5671C65.0198 21.8678 65.0665 22.1514 65.1601 22.4185C65.2536 22.6856 65.387 22.9182 65.5596 23.1157C65.7327 23.3132 65.9435 23.4706 66.194 23.588C66.4446 23.7049 66.7279 23.763 67.0462 23.763C67.35 23.763 67.6258 23.7071 67.8737 23.5952C68.1215 23.4838 68.3339 23.3297 68.5113 23.1338C68.6888 22.9385 68.8269 22.707 68.9248 22.4399C69.0232 22.1733 69.0721 21.882 69.0721 21.5671C69.0721 21.2528 69.0227 20.9615 68.9248 20.6949C68.8264 20.4278 68.6888 20.1968 68.5113 20.001C68.3339 19.8052 68.121 19.6516 67.8737 19.5391C67.6258 19.4272 67.35 19.3713 67.0462 19.3713ZM75.3268 17.962C75.794 17.962 76.223 18.0492 76.6129 18.2231C77.0032 18.3976 77.3376 18.6428 77.6156 18.9599C77.8936 19.2769 78.1108 19.6565 78.2678 20.0976C78.4242 20.5386 78.5027 21.0263 78.5027 21.5606C78.5027 21.656 78.5001 21.7509 78.4958 21.8464C78.4909 21.9418 78.4839 22.0323 78.4748 22.1184H73.5111C73.5573 22.4284 73.6439 22.6928 73.7708 22.9122C73.8971 23.1316 74.0482 23.3116 74.2267 23.4525C74.4041 23.593 74.6025 23.6972 74.8224 23.7636C75.0423 23.8305 75.2714 23.8634 75.5096 23.8634C75.8461 23.8634 76.1838 23.8009 76.5225 23.6741C76.8613 23.548 77.1709 23.3702 77.4516 23.141L78.1807 24.2068C77.7694 24.5645 77.3333 24.8151 76.8731 24.9578C76.4128 25.1009 75.9279 25.1728 75.4182 25.1728C74.9133 25.1728 74.4509 25.0867 74.0299 24.9155C73.6095 24.7438 73.2465 24.5003 72.9428 24.186C72.639 23.8711 72.4029 23.4915 72.2347 23.0482C72.0664 22.6045 71.9825 22.1113 71.9825 21.5671C71.9825 21.0328 72.0637 20.5441 72.2277 20.1008C72.3917 19.6571 72.6202 19.2769 72.9148 18.9599C73.2094 18.6428 73.5605 18.3976 73.9697 18.2231C74.3794 18.0492 74.8316 17.962 75.3268 17.962ZM79.2028 24.9934V24.6489H79.3388V24.5787H78.992V24.6489H79.128V24.9934H79.2028ZM79.8765 24.9934V24.5776H79.77L79.6474 24.8634L79.5248 24.5776H79.4184V24.9934H79.4937V24.6797L79.6082 24.9501H79.6861L79.8007 24.6791V24.9934H79.8765ZM75.2988 19.2923C75.037 19.2923 74.8047 19.3329 74.6009 19.4135C74.3977 19.4947 74.2224 19.6104 74.0751 19.7607C73.9283 19.9105 73.8073 20.0899 73.7138 20.2972C73.6202 20.5046 73.5552 20.7322 73.5175 20.9802H77.0021C76.9225 20.4459 76.736 20.0312 76.4413 19.7355C76.1472 19.4404 75.766 19.2923 75.2988 19.2923Z" fill="#9E9E9E"/>
<path fill-rule="evenodd" clip-rule="evenodd" d="M12.0995 10.8641H10.4559V2.3165L7.48154 9.84709H5.7508L2.77645 2.39769V10.8636H1.13281V0.476091H3.6566L6.61644 7.89587L9.57628 0.476091H12.1001V10.8641H12.0995ZM20.7538 10.8641H19.2338V10.0111C18.9913 10.3276 18.6907 10.58 18.3321 10.7676C17.9735 10.9557 17.5439 11.0501 17.045 11.0501C16.5551 11.0501 16.0997 10.9574 15.6777 10.772C15.2556 10.586 14.8873 10.3276 14.5722 9.9963C14.2572 9.66497 14.0099 9.27056 13.8308 8.81306C13.6512 8.35557 13.5614 7.85473 13.5614 7.31056C13.5614 6.76639 13.6512 6.26556 13.8308 5.80752C14.0099 5.35057 14.2572 4.95561 14.5722 4.62428C14.8873 4.29295 15.2556 4.03403 15.6777 3.84862C16.0997 3.66321 16.5551 3.5705 17.045 3.5705C17.5444 3.5705 17.9735 3.66595 18.3321 3.8563C18.6907 4.04665 18.9913 4.30008 19.2338 4.6166V3.75591H20.7538V10.8641ZM17.2267 5.03186C16.8971 5.03186 16.6025 5.09275 16.3433 5.21343C16.0842 5.33466 15.8643 5.49813 15.6852 5.70329C15.5056 5.909 15.3674 6.14927 15.2707 6.42684C15.1734 6.70386 15.125 6.99843 15.125 7.31001C15.125 7.62159 15.1734 7.91562 15.2707 8.19264C15.3674 8.46966 15.5056 8.71103 15.6852 8.91619C15.8643 9.1219 16.0842 9.28482 16.3433 9.40605C16.6025 9.52673 16.8971 9.58762 17.2267 9.58762C17.5418 9.58762 17.8278 9.52948 18.0848 9.41318C18.3418 9.29689 18.5622 9.13781 18.7467 8.93484C18.9305 8.73187 19.0736 8.49216 19.1757 8.21513C19.2773 7.93811 19.3284 7.63641 19.3284 7.31001C19.3284 6.98307 19.2773 6.68137 19.1757 6.40435C19.0736 6.12733 18.9305 5.88761 18.7467 5.68464C18.5622 5.48222 18.3418 5.32259 18.0848 5.2063C17.8278 5.09 17.5418 5.03186 17.2267 5.03186ZM27.7348 5.53653C27.6283 5.4729 27.4971 5.40433 27.3423 5.33247C27.1869 5.26061 27.0149 5.19533 26.8261 5.13553C26.6369 5.07629 26.4369 5.02692 26.2261 4.98688C26.0148 4.94738 25.8008 4.92763 25.5825 4.92763C25.1653 4.92763 24.8422 5.00553 24.6115 5.16132C24.3814 5.31711 24.2663 5.52172 24.2663 5.77351C24.2663 5.89693 24.2964 6.00061 24.3572 6.08509C24.4179 6.16956 24.4991 6.23868 24.6007 6.29299C24.7029 6.3473 24.8239 6.39063 24.9642 6.423C25.1051 6.45536 25.2551 6.48389 25.4153 6.50802L26.1352 6.61938C26.8966 6.73293 27.4901 6.95949 27.9171 7.29795C28.344 7.63641 28.5574 8.11036 28.5574 8.71871C28.5574 9.05991 28.4859 9.37314 28.3429 9.65729C28.1999 9.94144 27.9939 10.1866 27.7246 10.3918C27.4557 10.5975 27.1235 10.7566 26.7283 10.8707C26.3331 10.9842 25.8858 11.0408 25.3863 11.0408C25.2067 11.0408 24.9981 11.0298 24.761 11.0078C24.5233 10.9853 24.2712 10.9409 24.0045 10.8745C23.7378 10.8076 23.4663 10.7149 23.1899 10.5964C22.9136 10.4774 22.649 10.3216 22.3974 10.129L23.1028 8.96391C23.2286 9.0632 23.3657 9.15536 23.5136 9.24203C23.6614 9.3287 23.8287 9.4055 24.0152 9.47188C24.2018 9.5388 24.4083 9.59256 24.6335 9.63151C24.8594 9.671 25.1147 9.69075 25.4008 9.69075C25.9245 9.69075 26.3191 9.61286 26.5863 9.45707C26.853 9.30128 26.9864 9.08953 26.9864 8.82239C26.9864 8.61997 26.889 8.45266 26.6955 8.32155C26.5014 8.191 26.196 8.09555 25.7793 8.0363L25.0518 7.93976C24.276 7.8306 23.6883 7.59965 23.2883 7.24583C22.8883 6.89256 22.6883 6.42848 22.6883 5.85469C22.6883 5.50362 22.7549 5.1871 22.8883 4.90514C23.0216 4.62318 23.213 4.38456 23.4625 4.18872C23.7125 3.99344 24.0142 3.84259 24.3679 3.73617C24.7217 3.62975 25.1217 3.57708 25.568 3.57708C26.1159 3.57708 26.632 3.64236 27.117 3.77402C27.602 3.90457 28.0262 4.08889 28.3897 4.32641L27.7348 5.53653ZM34.9492 5.16516H32.2802V8.25957C32.2802 8.49654 32.3092 8.69951 32.3673 8.86792C32.4254 9.03632 32.5044 9.17346 32.6039 9.27988C32.7028 9.3863 32.8195 9.4642 32.9528 9.51357C33.0861 9.56294 33.2302 9.58762 33.3856 9.58762C33.6233 9.58762 33.8641 9.541 34.1093 9.44664C34.3545 9.35284 34.5809 9.23929 34.7895 9.10599L35.3927 10.3446C35.1115 10.5377 34.7954 10.7039 34.4437 10.8416C34.0921 10.9804 33.6959 11.0495 33.2544 11.0495C32.4641 11.0495 31.8495 10.8257 31.4108 10.3781C30.9721 9.93047 30.7527 9.23435 30.7527 8.28919V5.16516H29.3634V3.75591H30.7527V1.60392H32.2797V3.75591H34.9486V5.16516H34.9492ZM39.6252 3.56995C40.1102 3.56995 40.5548 3.66046 40.9597 3.84094C41.3646 4.02141 41.7113 4.27649 42.0001 4.60508C42.2883 4.93421 42.5135 5.32753 42.6764 5.78448C42.8388 6.24197 42.92 6.74829 42.92 7.30179C42.92 7.40107 42.9173 7.49982 42.9125 7.59856C42.9076 7.69784 42.9001 7.79165 42.891 7.88051H37.7418C37.7902 8.20197 37.88 8.4768 38.0106 8.70445C38.1413 8.93155 38.2988 9.11861 38.4832 9.26452C38.6676 9.41044 38.8736 9.51851 39.1015 9.58708C39.3295 9.65674 39.5671 9.69075 39.8139 9.69075C40.1629 9.69075 40.5134 9.62547 40.8651 9.49437C41.2167 9.36381 41.5377 9.1795 41.8286 8.94142L42.585 10.0468C42.1581 10.4176 41.706 10.6776 41.2285 10.8263C40.7511 10.9744 40.2478 11.049 39.7198 11.049C39.1962 11.049 38.716 10.9596 38.28 10.7818C37.8434 10.6041 37.4676 10.3518 37.1525 10.0254C36.8374 9.69843 36.5923 9.30567 36.418 8.84543C36.2438 8.38573 36.1562 7.87338 36.1562 7.31001C36.1562 6.75597 36.2412 6.24856 36.4105 5.78832C36.5804 5.32863 36.8181 4.93421 37.1235 4.60508C37.4289 4.27595 37.7934 4.02141 38.2181 3.84094C38.6424 3.66046 39.1112 3.56995 39.6252 3.56995ZM39.5962 4.95067C39.3247 4.95067 39.0832 4.99291 38.8725 5.07684C38.6617 5.16077 38.48 5.2809 38.3273 5.43669C38.1746 5.59303 38.0493 5.77789 37.9525 5.99348C37.8552 6.20851 37.788 6.44494 37.7488 6.70166H41.3635C41.2812 6.14817 41.0871 5.71755 40.7817 5.41036C40.4758 5.10372 40.0806 4.95067 39.5962 4.95067ZM48.1848 3.56995C48.4176 3.56995 48.6273 3.58586 48.8139 3.61823C49.0004 3.65059 49.1811 3.70106 49.3553 3.77018L48.9918 5.30614C48.8322 5.22221 48.6456 5.15748 48.4316 5.11304C48.2187 5.06916 48.0197 5.04667 47.8353 5.04667C47.5928 5.04667 47.3697 5.08891 47.1659 5.17284C46.9627 5.25677 46.788 5.38019 46.6428 5.54366C46.4971 5.70658 46.3836 5.90681 46.3008 6.14433C46.2186 6.38131 46.1772 6.6512 46.1772 6.9529V10.863H44.6572V3.75482H46.1621V4.55626C46.3949 4.21506 46.6837 3.96546 47.0278 3.80693C47.3724 3.64949 47.7579 3.56995 48.1848 3.56995ZM53.3846 3.56995C53.9082 3.56995 54.3959 3.6654 54.8465 3.85575C55.297 4.0461 55.6777 4.3297 55.9879 4.70547L55.0131 5.76692C54.7658 5.5294 54.5099 5.34783 54.2432 5.22166C53.9754 5.09549 53.6754 5.03241 53.341 5.03241C53.0507 5.03241 52.7791 5.08781 52.5264 5.19972C52.2743 5.31052 52.056 5.46631 51.8721 5.66709C51.6882 5.86731 51.5436 6.10703 51.4398 6.38624C51.335 6.66601 51.2834 6.97375 51.2834 7.31056C51.2834 7.64683 51.335 7.95457 51.4398 8.23433C51.5436 8.51355 51.6882 8.75327 51.8721 8.95404C52.056 9.15426 52.2743 9.31005 52.5264 9.42086C52.7786 9.53222 53.0501 9.58817 53.341 9.58817C53.6754 9.58817 53.9878 9.51741 54.2787 9.37698C54.5696 9.236 54.8271 9.05881 55.0497 8.84597L55.9879 9.91456C55.6685 10.2909 55.2852 10.5734 54.8395 10.7643C54.3927 10.9546 53.9088 11.0501 53.3846 11.0501C52.8324 11.0501 52.3302 10.9546 51.8796 10.7643C51.4285 10.5739 51.043 10.3117 50.7231 9.9782C50.4032 9.64412 50.1559 9.24971 49.9817 8.79441C49.8075 8.33911 49.7198 7.84486 49.7198 7.31056C49.7198 6.77627 49.8075 6.28147 49.9817 5.82617C50.1559 5.37087 50.4032 4.97645 50.7231 4.64238C51.043 4.30886 51.4285 4.04665 51.8796 3.8563C52.3302 3.6654 52.8318 3.56995 53.3846 3.56995ZM64.0894 10.8641H62.5695V10.0111C62.327 10.3276 62.0264 10.58 61.6678 10.7676C61.3086 10.9557 60.8801 11.0501 60.3806 11.0501C59.8908 11.0501 59.4349 10.9574 59.0134 10.772C58.5918 10.586 58.223 10.3276 57.9079 9.9963C57.5928 9.66497 57.3455 9.27056 57.1659 8.81306C56.9869 8.35557 56.8966 7.85473 56.8966 7.31056C56.8966 6.76639 56.9869 6.26556 57.1659 5.80752C57.3455 5.35057 57.5928 4.95561 57.9079 4.62428C58.223 4.29295 58.5913 4.03403 59.0134 3.84862C59.4349 3.66321 59.8908 3.5705 60.3806 3.5705C60.8801 3.5705 61.3092 3.66595 61.6678 3.8563C62.0264 4.04665 62.327 4.30008 62.5695 4.6166V3.75591H64.0894V10.8641ZM60.5624 5.03186C60.2328 5.03186 59.9381 5.09275 59.679 5.21343C59.4198 5.33466 59.2005 5.49813 59.0209 5.70329C58.8418 5.909 58.7037 6.14927 58.6063 6.42684C58.5096 6.70386 58.4606 6.99843 58.4606 7.31001C58.4606 7.62159 58.5096 7.91562 58.6063 8.19264C58.7037 8.46966 58.8418 8.71103 59.0209 8.91619C59.2005 9.1219 59.4198 9.28482 59.679 9.40605C59.9387 9.52673 60.2328 9.58762 60.5624 9.58762C60.878 9.58762 61.1635 9.52948 61.421 9.41318C61.678 9.29689 61.8979 9.13781 62.0829 8.93484C62.2668 8.73187 62.4098 8.49216 62.5119 8.21513C62.6141 7.93811 62.6652 7.63641 62.6652 7.31001C62.6652 6.98307 62.6141 6.68137 62.5119 6.40435C62.4103 6.12733 62.2673 5.88761 62.0829 5.68464C61.8985 5.48222 61.678 5.32259 61.421 5.2063C61.1635 5.09 60.8774 5.03186 60.5624 5.03186ZM69.8564 3.56995C70.0892 3.56995 70.2989 3.58586 70.4855 3.61823C70.672 3.65059 70.8527 3.70106 71.0274 3.77018L70.664 5.30614C70.5043 5.22221 70.3177 5.15748 70.1043 5.11304C69.8908 5.06916 69.6919 5.04667 69.5075 5.04667C69.265 5.04667 69.0418 5.08891 68.8386 5.17284C68.6348 5.25677 68.4601 5.38019 68.3149 5.54366C68.1692 5.70658 68.0552 5.90681 67.973 6.14433C67.8907 6.38131 67.8493 6.6512 67.8493 6.9529V10.863H66.3293V3.75482H67.8348V4.55626C68.0671 4.21506 68.3558 3.96546 68.6999 3.80693C69.0445 3.64949 69.43 3.56995 69.8564 3.56995ZM74.8454 3.56995C75.3449 3.56995 75.7734 3.6654 76.1326 3.85575C76.4912 4.0461 76.7917 4.29953 77.0342 4.61605V0.179321H78.5542V10.8636H77.0342V10.0106C76.7917 10.3271 76.4912 10.5794 76.1326 10.767C75.7734 10.9552 75.3449 11.0495 74.8454 11.0495C74.3556 11.0495 73.8996 10.9568 73.4781 10.7714C73.0566 10.5854 72.6877 10.3271 72.3727 9.99575C72.0571 9.66442 71.8103 9.27001 71.6307 8.81251C71.4517 8.35502 71.3619 7.85418 71.3619 7.31001C71.3619 6.76585 71.4517 6.26501 71.6307 5.80697C71.8103 5.35002 72.0576 4.95506 72.3727 4.62373C72.6877 4.2924 73.056 4.03348 73.4781 3.84807C73.9002 3.66321 74.3556 3.56995 74.8454 3.56995ZM80.3296 10.2064C80.3919 10.2064 80.45 10.2185 80.5048 10.2421C80.5597 10.2656 80.607 10.298 80.6484 10.3391C80.6892 10.3803 80.7215 10.428 80.7452 10.4834C80.7688 10.5383 80.7807 10.597 80.7807 10.659C80.7807 10.7209 80.7688 10.7796 80.7452 10.8339C80.7215 10.8883 80.6892 10.9365 80.6484 10.9777C80.6075 11.0188 80.5597 11.0512 80.5048 11.0753C80.45 11.0994 80.3919 11.1115 80.3296 11.1115C80.2661 11.1115 80.2064 11.0994 80.151 11.0753C80.0957 11.0512 80.0478 11.0188 80.007 10.9777C79.9661 10.9365 79.9344 10.8888 79.9107 10.8339C79.8871 10.7791 79.8758 10.7209 79.8758 10.659C79.8758 10.597 79.8876 10.5383 79.9107 10.4834C79.9344 10.4286 79.9661 10.3803 80.007 10.3391C80.0473 10.298 80.0957 10.2656 80.151 10.2421C80.2064 10.2185 80.2656 10.2064 80.3296 10.2064ZM80.3296 11.0106C80.3774 11.0106 80.422 11.0013 80.4634 10.9832C80.5048 10.9645 80.5409 10.9393 80.572 10.908C80.6032 10.8762 80.6274 10.8389 80.6452 10.7961C80.6629 10.7533 80.6715 10.7078 80.6715 10.6584C80.6715 10.6096 80.6629 10.5641 80.6452 10.5213C80.6274 10.4785 80.6032 10.4412 80.572 10.4094C80.5409 10.3775 80.5048 10.3529 80.4634 10.3348C80.422 10.3167 80.3774 10.3079 80.3296 10.3079C80.2812 10.3079 80.2355 10.3167 80.193 10.3348C80.1505 10.3529 80.114 10.3775 80.0828 10.4094C80.0516 10.4412 80.0274 10.4785 80.0096 10.5213C79.9919 10.5641 79.9833 10.6096 79.9833 10.6584C79.9833 10.7072 79.9919 10.7528 80.0096 10.7961C80.0274 10.8389 80.0516 10.8762 80.0828 10.908C80.114 10.9398 80.1505 10.965 80.193 10.9832C80.2355 11.0018 80.2812 11.0106 80.3296 11.0106ZM80.3554 10.4472C80.4081 10.4472 80.4489 10.4593 80.4774 10.4834C80.5059 10.5076 80.5204 10.5399 80.5204 10.5816C80.5204 10.6162 80.5091 10.6452 80.486 10.6677C80.4629 10.6902 80.4306 10.7039 80.3887 10.7094L80.5231 10.868H80.4177L80.293 10.7105H80.2527V10.868H80.1645V10.4483H80.3554V10.4472ZM80.2537 10.5257V10.6376H80.3548C80.3779 10.6376 80.3962 10.6332 80.4102 10.6238C80.4236 10.6145 80.4306 10.6003 80.4306 10.5811C80.4306 10.5624 80.4236 10.5487 80.4102 10.5394C80.3962 10.53 80.3779 10.5257 80.3548 10.5257H80.2537ZM75.0271 5.03186C74.6975 5.03186 74.4029 5.09275 74.1437 5.21343C73.8846 5.33466 73.6652 5.49813 73.4856 5.70329C73.3066 5.909 73.1684 6.14927 73.0711 6.42684C72.9743 6.70386 72.9254 6.99843 72.9254 7.31001C72.9254 7.62159 72.9743 7.91562 73.0711 8.19264C73.1684 8.46966 73.3066 8.71103 73.4856 8.91619C73.6652 9.1219 73.8846 9.28482 74.1437 9.40605C74.4029 9.52673 74.6975 9.58762 75.0271 9.58762C75.3427 9.58762 75.6282 9.52948 75.8858 9.41318C76.1428 9.29689 76.3627 9.13781 76.5476 8.93484C76.7315 8.73187 76.8745 8.49216 76.9767 8.21513C77.0788 7.93811 77.1299 7.63641 77.1299 7.31001C77.1299 6.98307 77.0788 6.68137 76.9767 6.40435C76.8751 6.12733 76.732 5.88761 76.5476 5.68464C76.3632 5.48222 76.1428 5.32259 75.8858 5.2063C75.6282 5.09 75.3427 5.03186 75.0271 5.03186Z" fill="#9E9E9E"/>
</g>
<defs>
<clipPath id="clip0_87_9484">
<rect width="80.4686" height="25" fill="white" transform="translate(0.3125 0.179443)"/>
</clipPath>
</defs>
</svg>
