<svg width="47" height="26" viewBox="0 0 47 26" fill="none" xmlns="http://www.w3.org/2000/svg">
<g clip-path="url(#clip0_87_9462)">
<path fill-rule="evenodd" clip-rule="evenodd" d="M2.50428 8.83265L0 0.743286H1.07066L2.26745 4.72743C2.59678 5.81871 2.88126 6.80367 3.08726 7.75171H3.11109C3.3269 6.81548 3.64642 5.79508 3.98696 4.73924L5.28604 0.743286H6.3455L3.60017 8.83265H2.50428Z" fill="#9E9E9E"/>
<path fill-rule="evenodd" clip-rule="evenodd" d="M6.86731 6.12077C6.89113 7.54874 7.75579 8.13647 8.75918 8.13647C9.4767 8.13647 9.90832 8.00504 10.2853 7.83669L10.4563 8.59277C10.1031 8.75963 9.49912 8.95308 8.62185 8.95308C6.92476 8.95308 5.91016 7.77763 5.91016 6.02478C5.91016 4.27194 6.88973 2.8927 8.49572 2.8927C10.2951 2.8927 10.7744 4.56137 10.7744 5.62903C10.7744 5.84463 10.7506 6.01297 10.7408 6.12077H6.86731ZM9.80602 5.3647C9.81864 4.6928 9.54396 3.64729 8.41724 3.64729C7.40264 3.64729 6.9598 4.63078 6.87992 5.3647H9.80602Z" fill="#9E9E9E"/>
<path fill-rule="evenodd" clip-rule="evenodd" d="M11.5605 4.83726C11.5605 4.15355 11.5493 3.56582 11.5156 3.02535H12.3929L12.4265 4.16536H12.4714C12.7222 3.38566 13.3248 2.89392 13.9975 2.89392C14.111 2.89392 14.1923 2.90573 14.282 2.92936V3.92613C14.1797 3.90103 14.0774 3.88922 13.94 3.88922C13.2351 3.88922 12.7348 4.45332 12.5975 5.2463C12.5737 5.39102 12.5513 5.55789 12.5513 5.73805V8.83469H11.5605V4.83726Z" fill="#9E9E9E"/>
<path fill-rule="evenodd" clip-rule="evenodd" d="M15.9916 1.39239C16.0028 1.7527 15.752 2.04066 15.354 2.04066C15.0008 2.04066 14.75 1.7527 14.75 1.39239C14.75 1.02026 15.0121 0.7323 15.3764 0.7323C15.752 0.7323 15.9916 1.02173 15.9916 1.39239ZM14.8747 3.02414H15.8781V8.83201H14.8747V3.02414Z" fill="#9E9E9E"/>
<path fill-rule="evenodd" clip-rule="evenodd" d="M17.1871 8.83291V3.82837H16.4121V3.02357H17.1871V2.74743C17.1871 1.93229 17.358 1.18803 17.8247 0.718439C18.2003 0.334497 18.7006 0.179443 19.1686 0.179443C19.5218 0.179443 19.8287 0.263615 20.0221 0.347787L19.8848 1.16293C19.7376 1.09057 19.5316 1.0315 19.2471 1.0315C18.3937 1.0315 18.1765 1.82301 18.1765 2.71051V3.02209H19.5078V3.82689H18.1765V8.83144H17.1871V8.83291Z" fill="#9E9E9E"/>
<path fill-rule="evenodd" clip-rule="evenodd" d="M21.6127 1.39239C21.6253 1.7527 21.3731 2.04066 20.9751 2.04066C20.6219 2.04066 20.3711 1.7527 20.3711 1.39239C20.3711 1.02026 20.6346 0.7323 20.9975 0.7323C21.3731 0.7323 21.6127 1.02173 21.6127 1.39239ZM20.4972 3.02414H21.4992V8.83201H20.4972V3.02414Z" fill="#9E9E9E"/>
<path fill-rule="evenodd" clip-rule="evenodd" d="M23.2657 6.12077C23.2896 7.54874 24.1542 8.13647 25.1576 8.13647C25.8751 8.13647 26.3068 8.00504 26.6837 7.83669L26.8547 8.59277C26.5016 8.75963 25.8962 8.95308 25.0203 8.95308C23.3232 8.95308 22.3086 7.77763 22.3086 6.02478C22.3086 4.27194 23.2882 2.8927 24.8942 2.8927C26.6935 2.8927 27.1714 4.56137 27.1714 5.62903C27.1714 5.84463 27.149 6.01297 27.1378 6.12077H23.2657ZM26.2031 5.3647C26.2143 4.6928 25.941 3.64729 24.8143 3.64729C23.7997 3.64729 23.3568 4.63078 23.2756 5.3647H26.2031Z" fill="#9E9E9E"/>
<path fill-rule="evenodd" clip-rule="evenodd" d="M32.72 0.312878V7.33311C32.72 7.84996 32.7312 8.43769 32.7648 8.83344H31.8651L31.8189 7.82485H31.7951C31.4882 8.47165 30.8169 8.96339 29.9158 8.96339C28.5845 8.96339 27.5587 7.77612 27.5587 6.01147C27.5475 4.07846 28.6868 2.8912 30.0307 2.8912C30.873 2.8912 31.4433 3.31206 31.6928 3.77869H31.7166V0.311401H32.72V0.312878ZM31.7166 5.3883C31.7166 5.25687 31.7054 5.07671 31.6718 4.94381C31.5246 4.27191 30.9767 3.71963 30.2255 3.71963C29.1899 3.71963 28.5747 4.67948 28.5747 5.96421C28.5747 7.13967 29.1212 8.11281 30.2031 8.11281C30.8744 8.11281 31.4896 7.6447 31.6718 6.85171C31.7054 6.70847 31.7166 6.56375 31.7166 6.39541V5.3883Z" fill="#9E9E9E"/>
<path fill-rule="evenodd" clip-rule="evenodd" d="M36.4297 8.83282C36.4535 8.43559 36.4745 7.84786 36.4745 7.33249V0.312256H37.4653V3.95971H37.4891C37.8423 3.31291 38.4799 2.89205 39.3684 2.89205C40.7362 2.89205 41.7031 4.09261 41.6919 5.85579C41.6919 7.93203 40.4503 8.96277 39.2199 8.96277C38.4225 8.96277 37.7834 8.63937 37.3756 7.87149H37.342L37.2957 8.83134H36.4297V8.83282ZM37.4653 6.50406C37.4653 6.63549 37.4891 6.76839 37.5116 6.88801C37.705 7.61897 38.2851 8.12253 39.0139 8.12253C40.0621 8.12253 40.6871 7.22322 40.6871 5.89123C40.6871 4.72759 40.1182 3.73082 39.0475 3.73082C38.365 3.73082 37.7274 4.22256 37.5214 5.02736C37.4975 5.14698 37.4639 5.29169 37.4639 5.45856V6.50406H37.4653Z" fill="#9E9E9E"/>
<path fill-rule="evenodd" clip-rule="evenodd" d="M42.7845 3.02369L43.9911 6.45555C44.1172 6.83949 44.2545 7.29579 44.3442 7.64429H44.3681C44.4704 7.29579 44.5839 6.8513 44.7212 6.43192L45.8143 3.02369H46.8737L45.3701 7.16436C44.6525 9.15643 44.1635 10.1768 43.4796 10.8C42.9891 11.2563 42.5 11.4365 42.2492 11.4837L41.9983 10.5947C42.2492 10.5106 42.5785 10.3422 42.8756 10.0779C43.1488 9.85048 43.4894 9.44143 43.7192 8.90244C43.7641 8.79464 43.7991 8.71047 43.7991 8.6514C43.7991 8.59086 43.7753 8.50668 43.7304 8.37526L41.6914 3.02222H42.7845V3.02369Z" fill="#9E9E9E"/>
<path fill-rule="evenodd" clip-rule="evenodd" d="M16.6224 13.1005L13.5842 21.1957L12.3551 14.3128C12.2136 13.545 11.6432 13.1005 11.0098 13.1005H6.04188L5.97461 13.4445C6.99342 13.6808 8.15237 14.0544 8.85447 14.4561C9.28329 14.7042 9.40661 14.9168 9.54535 15.5031L11.8745 24.9953H14.9617L19.6914 13.1019H16.6224V13.1005Z" fill="#9E9E9E"/>
<path fill-rule="evenodd" clip-rule="evenodd" d="M20.943 13.1005L18.5312 24.9938H21.4503L23.8593 13.1005H20.943Z" fill="#9E9E9E"/>
<path fill-rule="evenodd" clip-rule="evenodd" d="M27.6909 16.3963C27.7007 15.971 28.0861 15.5162 28.9298 15.398C29.3502 15.3404 30.5007 15.2976 31.811 15.9282L32.3225 13.4089C31.6204 13.1387 30.7137 12.8788 29.5912 12.8788C26.7029 12.8788 24.6751 14.4972 24.6569 16.8127C24.6415 18.5227 26.1088 19.4811 27.2131 20.0511C28.351 20.6315 28.7336 21.0036 28.7266 21.5278C28.721 22.3267 27.8199 22.6752 26.9818 22.69C25.5118 22.7136 24.6611 22.2721 23.98 21.9398L23.4531 24.5477C24.1328 24.877 25.394 25.1649 26.7015 25.1797C29.7636 25.1797 31.7704 23.579 31.7816 21.1099C31.7928 17.969 27.6615 17.7977 27.6909 16.3963Z" fill="#9E9E9E"/>
<path fill-rule="evenodd" clip-rule="evenodd" d="M36.1442 20.7808L37.6955 16.3152L38.5686 20.7808H36.1442ZM37.2527 13.1005C36.6921 13.1005 36.2185 13.4416 36.0082 13.9732L31.6289 24.9938H34.6965L35.3062 23.2173H39.0437L39.394 24.9938H42.1015L39.7472 13.1005H37.2527Z" fill="#9E9E9E"/>
</g>
<defs>
<clipPath id="clip0_87_9462">
<rect width="46.8746" height="25.0001" fill="white" transform="translate(0 0.179443)"/>
</clipPath>
</defs>
</svg>
