<svg width="30" height="19" viewBox="0 0 30 19" fill="none" xmlns="http://www.w3.org/2000/svg">
<rect y="0.846191" width="30" height="18" rx="9" fill="#E42400"/>
<path d="M6.54 10.7262H4.26V9.99619H6.54V10.7262ZM11.5898 12.8462H8.12984V12.1162H9.48984V7.62619H8.31984V6.84619H10.3098V12.1162H11.5898V12.8462ZM16.9466 11.5862C16.9466 11.7929 16.8899 11.9829 16.7766 12.1562C16.7366 12.2162 16.6566 12.3095 16.5366 12.4362C16.4166 12.5562 16.3199 12.6395 16.2466 12.6862C16.0532 12.8262 15.8299 12.8962 15.5766 12.8962H14.4166C13.9966 12.8962 13.5832 12.6295 13.1766 12.0962C13.1232 12.0295 13.0299 11.8529 12.8966 11.5662L13.6966 11.3562L13.7966 11.5562C13.8566 11.6629 13.9366 11.7695 14.0366 11.8762C14.1432 11.9762 14.2366 12.0462 14.3166 12.0862C14.3499 12.1062 14.3932 12.1162 14.4466 12.1162H15.5666C15.6199 12.1162 15.6599 12.1095 15.6866 12.0962C15.7599 12.0629 15.8399 12.0029 15.9266 11.9162C16.0132 11.8295 16.0732 11.7495 16.1066 11.6762C16.1199 11.6495 16.1266 11.6162 16.1266 11.5762V10.4862C16.1266 10.4262 16.1199 10.3895 16.1066 10.3762C16.0266 10.2362 15.8866 10.0962 15.6866 9.95619C15.6666 9.94286 15.6266 9.93619 15.5666 9.93619H13.2266V6.84619H16.6366V7.62619H14.0466V9.16619H15.5766C15.8299 9.16619 16.0532 9.23619 16.2466 9.37619C16.3199 9.42952 16.4166 9.51619 16.5366 9.63619C16.6566 9.74952 16.7366 9.83619 16.7766 9.89619C16.8899 10.0695 16.9466 10.2595 16.9466 10.4662V11.5862ZM23.2033 6.84619L20.0333 12.8462H19.1933L22.4233 6.84619H23.2033ZM24.4233 11.8962C24.4233 12.0895 24.3833 12.2429 24.3033 12.3562C24.1966 12.5029 24.0699 12.6295 23.9233 12.7362C23.7766 12.8429 23.5933 12.8962 23.3733 12.8962H22.7733C22.5533 12.8962 22.3699 12.8429 22.2233 12.7362C22.0633 12.6162 21.9333 12.4895 21.8333 12.3562C21.7533 12.2495 21.7133 12.0962 21.7133 11.8962V10.7662C21.7133 10.5795 21.7533 10.4295 21.8333 10.3162C21.9533 10.1629 22.0833 10.0329 22.2233 9.92619C22.3699 9.81952 22.5533 9.76619 22.7733 9.76619H23.3733C23.5933 9.76619 23.7766 9.81952 23.9233 9.92619C24.0433 10.0195 24.1699 10.1495 24.3033 10.3162C24.3833 10.4295 24.4233 10.5795 24.4233 10.7662V11.8962ZM23.7133 11.9462C23.7266 11.9195 23.7333 11.8795 23.7333 11.8262V10.8362C23.7333 10.7829 23.7299 10.7462 23.7233 10.7262C23.6633 10.6129 23.5633 10.5195 23.4233 10.4462C23.3966 10.4329 23.3699 10.4262 23.3433 10.4262H22.8133C22.7866 10.4262 22.7599 10.4329 22.7333 10.4462C22.5866 10.5262 22.4833 10.6262 22.4233 10.7462C22.4099 10.7729 22.4033 10.8029 22.4033 10.8362V11.8262C22.4033 11.8595 22.4099 11.8895 22.4233 11.9162C22.4966 12.0562 22.5966 12.1562 22.7233 12.2162C22.7633 12.2362 22.7933 12.2462 22.8133 12.2462H23.3433C23.3766 12.2462 23.4066 12.2362 23.4333 12.2162C23.5733 12.1295 23.6666 12.0395 23.7133 11.9462ZM20.7333 8.88619C20.7333 9.07952 20.6933 9.23286 20.6133 9.34619C20.5066 9.49286 20.3799 9.61952 20.2333 9.72619C20.0866 9.83286 19.9033 9.88619 19.6833 9.88619H19.0833C18.8633 9.88619 18.6799 9.83286 18.5333 9.72619C18.3733 9.60619 18.2433 9.47952 18.1433 9.34619C18.0633 9.23952 18.0233 9.08619 18.0233 8.88619V7.75619C18.0233 7.56952 18.0633 7.41952 18.1433 7.30619C18.2633 7.15286 18.3933 7.02286 18.5333 6.91619C18.6799 6.80952 18.8633 6.75619 19.0833 6.75619H19.6833C19.9033 6.75619 20.0866 6.80952 20.2333 6.91619C20.3533 7.00952 20.4799 7.13952 20.6133 7.30619C20.6933 7.41952 20.7333 7.56952 20.7333 7.75619V8.88619ZM20.0233 8.93619C20.0366 8.90952 20.0433 8.86952 20.0433 8.81619V7.82619C20.0433 7.77286 20.0399 7.73619 20.0333 7.71619C19.9733 7.60286 19.8733 7.50952 19.7333 7.43619C19.7066 7.42286 19.6799 7.41619 19.6533 7.41619H19.1233C19.0966 7.41619 19.0699 7.42286 19.0433 7.43619C18.8966 7.51619 18.7933 7.61619 18.7333 7.73619C18.7199 7.76286 18.7133 7.79286 18.7133 7.82619V8.81619C18.7133 8.84952 18.7199 8.87952 18.7333 8.90619C18.8066 9.04619 18.9066 9.14619 19.0333 9.20619C19.0733 9.22619 19.1033 9.23619 19.1233 9.23619H19.6533C19.6799 9.23619 19.7099 9.22619 19.7433 9.20619C19.8833 9.11952 19.9766 9.02952 20.0233 8.93619Z" fill="white"/>
</svg>
