<svg width="43" height="21" viewBox="0 0 43 21" fill="none" xmlns="http://www.w3.org/2000/svg">
<rect y="0.846191" width="43" height="20" rx="10" fill="#F2F7F4"/>
<rect y="0.846191" width="43" height="20" rx="10" fill="url(#paint0_linear_323_6413)"/>
<path d="M10.69 13.8462H9.74L7.22 9.26619V13.8462H6.41V7.84619H7.38L9.88 12.4762V7.84619H10.69V13.8462ZM15.7429 12.8662C15.6762 13.0195 15.5796 13.1762 15.4529 13.3362C15.3329 13.4895 15.2096 13.6095 15.0829 13.6962C14.8962 13.8295 14.6696 13.8962 14.4029 13.8962H13.4129C13.1396 13.8962 12.9096 13.8295 12.7229 13.6962C12.5362 13.5562 12.3762 13.3962 12.2429 13.2162C12.1296 13.0629 12.0729 12.8729 12.0729 12.6462V10.7362C12.0729 10.5095 12.1296 10.3195 12.2429 10.1662C12.3762 9.98619 12.5362 9.82619 12.7229 9.68619C12.9096 9.55286 13.1396 9.48619 13.4129 9.48619H14.4129C14.6862 9.48619 14.9162 9.55286 15.1029 9.68619C15.2896 9.82619 15.4496 9.98619 15.5829 10.1662C15.6896 10.3195 15.7429 10.5095 15.7429 10.7362V12.0262H12.8529V12.6262C12.8529 12.6729 12.8596 12.7095 12.8729 12.7362C12.9062 12.8029 12.9629 12.8762 13.0429 12.9562C13.1229 13.0362 13.2029 13.0962 13.2829 13.1362C13.3229 13.1562 13.3662 13.1662 13.4129 13.1662H14.4229C14.4629 13.1662 14.5029 13.1562 14.5429 13.1362C14.6096 13.1029 14.6862 13.0462 14.7729 12.9662C14.8596 12.8795 14.9196 12.8029 14.9529 12.7362L15.0129 12.6262L15.7429 12.8662ZM14.9629 11.3162V10.7562C14.9629 10.6962 14.9596 10.6595 14.9529 10.6462C14.9196 10.5795 14.8562 10.5062 14.7629 10.4262C14.6762 10.3462 14.5962 10.2862 14.5229 10.2462C14.4829 10.2262 14.4429 10.2162 14.4029 10.2162H13.4129C13.3596 10.2162 13.3196 10.2262 13.2929 10.2462C13.0862 10.3595 12.9462 10.4929 12.8729 10.6462C12.8596 10.6595 12.8529 10.6962 12.8529 10.7562V11.3162H14.9629ZM22.9369 9.53619L21.6569 13.8462H20.7269L19.7569 10.6662L18.8269 13.8462H17.8969L16.5769 9.53619H17.4069L18.3669 12.8862L19.2869 9.53619H20.2369L21.1969 12.8862L22.1169 9.53619H22.9369Z" fill="black" fill-opacity="0.7"/>
<path d="M32 5.84619L32.2986 7.3836C32.6096 8.98469 33.8615 10.2366 35.4626 10.5476L37 10.8462L35.4626 11.1448C33.8615 11.4558 32.6096 12.7077 32.2986 14.3088L32 15.8462L31.7014 14.3088C31.3904 12.7077 30.1385 11.4558 28.5374 11.1448L27 10.8462L28.5374 10.5476C30.1385 10.2366 31.3904 8.98469 31.7014 7.3836L32 5.84619Z" fill="black" fill-opacity="0.7"/>
<defs>
<linearGradient id="paint0_linear_323_6413" x1="43.589" y1="12.0962" x2="-0.00896315" y2="11.4715" gradientUnits="userSpaceOnUse">
<stop stop-color="#9BF9B6" stop-opacity="0.5"/>
<stop offset="1" stop-color="#9BF9B6"/>
</linearGradient>
</defs>
</svg>
