<svg width="74" height="21" viewBox="0 0 74 21" fill="none" xmlns="http://www.w3.org/2000/svg">
<rect y="0.846191" width="74.0013" height="20" rx="10" fill="#F2F7F4"/>
<rect y="0.846191" width="74.0013" height="20" rx="10" fill="url(#paint0_linear_323_6416)"/>
<rect y="0.846191" width="74.0013" height="20" rx="10" fill="#F2F7F4"/>
<rect y="0.846191" width="74.0013" height="20" rx="10" fill="url(#paint1_linear_323_6416)"/>
<path d="M10.83 12.4962C10.83 12.7162 10.7833 12.8929 10.69 13.0262C10.63 13.1195 10.5167 13.2462 10.35 13.4062C10.19 13.5595 10.06 13.6662 9.96 13.7262C9.76 13.8395 9.57 13.8962 9.39 13.8962H7.72C7.3 13.8962 6.88667 13.6262 6.48 13.0862C6.42667 13.0129 6.33667 12.8395 6.21 12.5662L7 12.3562L7.09 12.5362C7.15 12.6429 7.23667 12.7529 7.35 12.8662C7.47 12.9729 7.57333 13.0495 7.66 13.0962C7.68667 13.1095 7.71667 13.1162 7.75 13.1162H9.35C9.37667 13.1162 9.40333 13.1095 9.43 13.0962C9.53 13.0495 9.65 12.9562 9.79 12.8162C9.93667 12.6762 10.01 12.5662 10.01 12.4862V11.8762C10.01 11.7962 9.98667 11.7229 9.94 11.6562C9.89333 11.5895 9.84 11.5495 9.78 11.5362L7.06 10.8362C6.84 10.7762 6.66667 10.6495 6.54 10.4562C6.41333 10.2629 6.35 10.0495 6.35 9.81619V9.20619C6.35 8.98619 6.39667 8.80952 6.49 8.67619C6.55 8.58286 6.66 8.45619 6.82 8.29619C6.98667 8.13619 7.12 8.02619 7.22 7.96619C7.42 7.85286 7.61 7.79619 7.79 7.79619H9.26C9.67333 7.79619 10.0833 8.06619 10.49 8.60619C10.5633 8.69286 10.6567 8.86286 10.77 9.11619L9.97 9.34619L9.87 9.14619C9.81667 9.04619 9.73 8.93952 9.61 8.82619C9.49 8.71286 9.38667 8.63286 9.3 8.58619C9.28 8.57952 9.25667 8.57619 9.23 8.57619H7.84C7.82 8.57619 7.79 8.58286 7.75 8.59619C7.66333 8.63619 7.54333 8.73286 7.39 8.88619C7.24333 9.03286 7.17 9.13952 7.17 9.20619V9.77619C7.17 9.84952 7.19 9.91952 7.23 9.98619C7.27667 10.0462 7.33 10.0829 7.39 10.0962L10.1 10.8162C10.32 10.8762 10.4967 11.0029 10.63 11.1962C10.7633 11.3829 10.83 11.5895 10.83 11.8162V12.4962ZM15.7431 13.8462H14.9631L14.9231 13.4962C14.6365 13.7562 14.3765 13.8862 14.1431 13.8862H13.3931C13.1198 13.8862 12.8898 13.8195 12.7031 13.6862C12.5165 13.5462 12.3565 13.3862 12.2231 13.2062C12.1165 13.0529 12.0631 12.8629 12.0631 12.6362V9.53619H12.8431V12.6162C12.8431 12.6762 12.8465 12.7129 12.8531 12.7262C12.9598 12.9062 13.1031 13.0429 13.2831 13.1362C13.3098 13.1495 13.3498 13.1562 13.4031 13.1562H14.1131C14.1998 13.1562 14.3331 13.0929 14.5131 12.9662C14.6998 12.8329 14.8231 12.7262 14.8831 12.6462V9.53619H15.6631V13.0462L15.7431 13.8462ZM20.7659 12.6262C20.7659 12.8595 20.7093 13.0529 20.5959 13.2062C20.4493 13.4062 20.2893 13.5695 20.1159 13.6962C19.9293 13.8295 19.7026 13.8962 19.4359 13.8962H18.6559C18.4226 13.8962 18.1659 13.7695 17.8859 13.5162V15.5762H17.1059V10.3362L17.0359 9.53619H17.8159L17.8559 9.90619C18.1493 9.62619 18.4159 9.48619 18.6559 9.48619H19.4359C19.6959 9.48619 19.9226 9.55619 20.1159 9.69619C20.3026 9.83619 20.4626 9.99619 20.5959 10.1762C20.7093 10.3362 20.7659 10.5295 20.7659 10.7562V12.6262ZM19.9859 12.6062V10.7762C19.9859 10.7162 19.9793 10.6795 19.9659 10.6662C19.9259 10.5929 19.8626 10.5162 19.7759 10.4362C19.6959 10.3495 19.6193 10.2862 19.5459 10.2462C19.4859 10.2262 19.4459 10.2162 19.4259 10.2162H18.6859C18.5926 10.2162 18.4493 10.2895 18.2559 10.4362C18.0693 10.5762 17.9459 10.6895 17.8859 10.7762V12.5962C17.9459 12.6829 18.0693 12.7995 18.2559 12.9462C18.4493 13.0929 18.5926 13.1662 18.6859 13.1662H19.4259C19.4659 13.1662 19.5059 13.1595 19.5459 13.1462C19.6193 13.1062 19.6993 13.0429 19.7859 12.9562C19.8726 12.8629 19.9326 12.7829 19.9659 12.7162C19.9793 12.6895 19.9859 12.6529 19.9859 12.6062ZM25.7476 12.8662C25.6809 13.0195 25.5842 13.1762 25.4576 13.3362C25.3376 13.4895 25.2142 13.6095 25.0876 13.6962C24.9009 13.8295 24.6742 13.8962 24.4076 13.8962H23.4176C23.1442 13.8962 22.9142 13.8295 22.7276 13.6962C22.5409 13.5562 22.3809 13.3962 22.2476 13.2162C22.1342 13.0629 22.0776 12.8729 22.0776 12.6462V10.7362C22.0776 10.5095 22.1342 10.3195 22.2476 10.1662C22.3809 9.98619 22.5409 9.82619 22.7276 9.68619C22.9142 9.55286 23.1442 9.48619 23.4176 9.48619H24.4176C24.6909 9.48619 24.9209 9.55286 25.1076 9.68619C25.2942 9.82619 25.4542 9.98619 25.5876 10.1662C25.6942 10.3195 25.7476 10.5095 25.7476 10.7362V12.0262H22.8576V12.6262C22.8576 12.6729 22.8642 12.7095 22.8776 12.7362C22.9109 12.8029 22.9676 12.8762 23.0476 12.9562C23.1276 13.0362 23.2076 13.0962 23.2876 13.1362C23.3276 13.1562 23.3709 13.1662 23.4176 13.1662H24.4276C24.4676 13.1662 24.5076 13.1562 24.5476 13.1362C24.6142 13.1029 24.6909 13.0462 24.7776 12.9662C24.8642 12.8795 24.9242 12.8029 24.9576 12.7362L25.0176 12.6262L25.7476 12.8662ZM24.9676 11.3162V10.7562C24.9676 10.6962 24.9642 10.6595 24.9576 10.6462C24.9242 10.5795 24.8609 10.5062 24.7676 10.4262C24.6809 10.3462 24.6009 10.2862 24.5276 10.2462C24.4876 10.2262 24.4476 10.2162 24.4076 10.2162H23.4176C23.3642 10.2162 23.3242 10.2262 23.2976 10.2462C23.0909 10.3595 22.9509 10.4929 22.8776 10.6462C22.8642 10.6595 22.8576 10.6962 22.8576 10.7562V11.3162H24.9676ZM30.5116 10.5262L29.7716 10.7462C29.5849 10.3929 29.3882 10.2162 29.1816 10.2162H28.6416C28.5482 10.2162 28.4082 10.2862 28.2216 10.4262C28.0349 10.5595 27.9116 10.6695 27.8516 10.7562V13.8462H27.0716V10.3362L27.0016 9.53619H27.7716L27.8216 9.88619C28.1016 9.61952 28.3649 9.48619 28.6116 9.48619H29.1616C29.4416 9.48619 29.6682 9.54952 29.8416 9.67619C29.9549 9.75619 30.0782 9.88286 30.2116 10.0562C30.3516 10.2229 30.4516 10.3795 30.5116 10.5262ZM37.3559 12.6462C37.3559 12.8729 37.3026 13.0629 37.1959 13.2162C37.0626 13.3962 36.9026 13.5562 36.7159 13.6962C36.5293 13.8295 36.2993 13.8962 36.0259 13.8962H35.0259C34.7526 13.8962 34.5226 13.8295 34.3359 13.6962C34.1493 13.5562 33.9893 13.3962 33.8559 13.2162C33.7493 13.0629 33.6959 12.8729 33.6959 12.6462V10.7362C33.6959 10.5095 33.7493 10.3195 33.8559 10.1662C33.9893 9.98619 34.1493 9.82619 34.3359 9.68619C34.5226 9.55286 34.7526 9.48619 35.0259 9.48619H36.0259C36.2993 9.48619 36.5293 9.55286 36.7159 9.68619C36.9026 9.82619 37.0626 9.98619 37.1959 10.1662C37.3026 10.3195 37.3559 10.5095 37.3559 10.7362V12.6462ZM36.5559 12.7562C36.5693 12.7295 36.5759 12.6862 36.5759 12.6262V10.7562C36.5759 10.6962 36.5659 10.6495 36.5459 10.6162C36.4459 10.4695 36.3159 10.3495 36.1559 10.2562C36.1159 10.2295 36.0693 10.2162 36.0159 10.2162H35.0459C35.0059 10.2162 34.9659 10.2262 34.9259 10.2462C34.7393 10.3395 34.5959 10.4729 34.4959 10.6462C34.4826 10.6729 34.4759 10.7095 34.4759 10.7562V12.6262C34.4759 12.6729 34.4826 12.7095 34.4959 12.7362C34.5293 12.8029 34.5893 12.8762 34.6759 12.9562C34.7693 13.0362 34.8526 13.0962 34.9259 13.1362C34.9659 13.1562 35.0059 13.1662 35.0459 13.1662H36.0159C36.0559 13.1662 36.0959 13.1562 36.1359 13.1362C36.3359 13.0229 36.4759 12.8962 36.5559 12.7562ZM41.2097 8.52619H40.4097C40.3297 8.52619 40.2797 8.53286 40.2597 8.54619C40.193 8.58619 40.1097 8.65619 40.0097 8.75619C39.9097 8.84952 39.8564 8.92619 39.8497 8.98619V9.07619V9.53619H41.0597V10.2662H39.8497V13.8462H39.0697V10.2662H38.3597V9.53619H39.0697V9.05619C39.0697 8.82286 39.123 8.62952 39.2297 8.47619C39.363 8.29619 39.523 8.13619 39.7097 7.99619C39.903 7.86286 40.133 7.79619 40.3997 7.79619H41.2097V8.52619ZM44.7081 8.52619H43.9081C43.8281 8.52619 43.7781 8.53286 43.7581 8.54619C43.6915 8.58619 43.6081 8.65619 43.5081 8.75619C43.4081 8.84952 43.3548 8.92619 43.3481 8.98619V9.07619V9.53619H44.5581V10.2662H43.3481V13.8462H42.5681V10.2662H41.8581V9.53619H42.5681V9.05619C42.5681 8.82286 42.6215 8.62952 42.7281 8.47619C42.8615 8.29619 43.0215 8.13619 43.2081 7.99619C43.4015 7.86286 43.6315 7.79619 43.8981 7.79619H44.7081V8.52619ZM49.3066 12.8662C49.2399 13.0195 49.1432 13.1762 49.0166 13.3362C48.8966 13.4895 48.7732 13.6095 48.6466 13.6962C48.4599 13.8295 48.2332 13.8962 47.9666 13.8962H46.9766C46.7032 13.8962 46.4732 13.8295 46.2866 13.6962C46.0999 13.5562 45.9399 13.3962 45.8066 13.2162C45.6932 13.0629 45.6366 12.8729 45.6366 12.6462V10.7362C45.6366 10.5095 45.6932 10.3195 45.8066 10.1662C45.9399 9.98619 46.0999 9.82619 46.2866 9.68619C46.4732 9.55286 46.7032 9.48619 46.9766 9.48619H47.9766C48.2499 9.48619 48.4799 9.55286 48.6666 9.68619C48.8532 9.82619 49.0132 9.98619 49.1466 10.1662C49.2532 10.3195 49.3066 10.5095 49.3066 10.7362V12.0262H46.4166V12.6262C46.4166 12.6729 46.4232 12.7095 46.4366 12.7362C46.4699 12.8029 46.5266 12.8762 46.6066 12.9562C46.6866 13.0362 46.7666 13.0962 46.8466 13.1362C46.8866 13.1562 46.9299 13.1662 46.9766 13.1662H47.9866C48.0266 13.1662 48.0666 13.1562 48.1066 13.1362C48.1732 13.1029 48.2499 13.0462 48.3366 12.9662C48.4232 12.8795 48.4832 12.8029 48.5166 12.7362L48.5766 12.6262L49.3066 12.8662ZM48.5266 11.3162V10.7562C48.5266 10.6962 48.5232 10.6595 48.5166 10.6462C48.4832 10.5795 48.4199 10.5062 48.3266 10.4262C48.2399 10.3462 48.1599 10.2862 48.0866 10.2462C48.0466 10.2262 48.0066 10.2162 47.9666 10.2162H46.9766C46.9232 10.2162 46.8832 10.2262 46.8566 10.2462C46.6499 10.3595 46.5099 10.4929 46.4366 10.6462C46.4232 10.6595 46.4166 10.6962 46.4166 10.7562V11.3162H48.5266ZM54.0705 10.5262L53.3305 10.7462C53.1439 10.3929 52.9472 10.2162 52.7405 10.2162H52.2005C52.1072 10.2162 51.9672 10.2862 51.7805 10.4262C51.5939 10.5595 51.4705 10.6695 51.4105 10.7562V13.8462H50.6305V10.3362L50.5605 9.53619H51.3305L51.3805 9.88619C51.6605 9.61952 51.9239 9.48619 52.1705 9.48619H52.7205C53.0005 9.48619 53.2272 9.54952 53.4005 9.67619C53.5139 9.75619 53.6372 9.88286 53.7705 10.0562C53.9105 10.2229 54.0105 10.3795 54.0705 10.5262Z" fill="black" fill-opacity="0.7"/>
<path d="M67.5381 9.7244L67.2328 9.41905C67.1594 9.34583 67.1012 9.25886 67.0614 9.16311C67.0217 9.06737 67.0012 8.96473 67.0012 8.86107V8.42927C67.0007 8.0092 66.8337 7.60645 66.5366 7.30941C66.2396 7.01237 65.8368 6.84531 65.4168 6.84487H64.9851C64.8813 6.84604 64.7783 6.82612 64.6824 6.78631C64.5865 6.7465 64.4996 6.68763 64.4272 6.61328L64.1218 6.30806C63.506 5.69224 62.5006 5.69224 61.8794 6.30806L61.5742 6.6134C61.5017 6.68775 61.4148 6.74661 61.3189 6.78642C61.223 6.82622 61.12 6.84615 61.0162 6.84499H60.5846C60.1645 6.84542 59.7617 7.01249 59.4647 7.30953C59.1677 7.60657 59.0006 8.00932 59.0001 8.4294V8.86119C59.0013 8.96503 58.9814 9.06803 58.9416 9.16394C58.9017 9.25985 58.8429 9.34668 58.7685 9.41918L58.4632 9.7244C58.1666 10.0221 58 10.4253 58 10.8455C58 11.2658 58.1666 11.669 58.4632 11.9667L58.7685 12.272C58.8429 12.3445 58.9017 12.4313 58.9415 12.5273C58.9814 12.6232 59.0013 12.7262 59.0001 12.83V13.2615C59.0006 13.6816 59.1676 14.0844 59.4647 14.3815C59.7617 14.6785 60.1645 14.8456 60.5846 14.8461H61.0162C61.12 14.8449 61.223 14.8648 61.3189 14.9046C61.4148 14.9445 61.5017 15.0033 61.5742 15.0777L61.8794 15.383C62.1772 15.6796 62.5804 15.8462 63.0006 15.8462C63.4209 15.8462 63.8241 15.6796 64.1218 15.383L64.4272 15.0778C64.4996 15.0035 64.5865 14.9446 64.6824 14.9048C64.7783 14.865 64.8813 14.845 64.9851 14.8462H65.4168C65.8369 14.8458 66.2396 14.6787 66.5367 14.3816C66.8337 14.0846 67.0008 13.6818 67.0012 13.2617V12.83C67.0012 12.7263 67.0217 12.6237 67.0615 12.5279C67.1012 12.4322 67.1594 12.3452 67.2328 12.272L67.5381 11.9666C67.8347 11.6689 68.0013 11.2658 68.0013 10.8455C68.0013 10.4252 67.8347 10.0221 67.5381 9.7244ZM61.6847 8.87161C61.8148 8.87161 61.942 8.9102 62.0503 8.9825C62.1585 9.0548 62.2428 9.15756 62.2926 9.27779C62.3424 9.39802 62.3554 9.53032 62.33 9.65796C62.3047 9.7856 62.242 9.90284 62.15 9.99486C62.0579 10.0869 61.9407 10.1495 61.8131 10.1749C61.6854 10.2003 61.5531 10.1873 61.4329 10.1375C61.3127 10.0877 61.2099 10.0034 61.1376 9.89515C61.0653 9.78695 61.0267 9.65973 61.0267 9.52959C61.0268 9.35511 61.0961 9.18778 61.2195 9.0644C61.3429 8.94102 61.5102 8.87167 61.6847 8.87161ZM64.3166 12.8195C64.1865 12.8195 64.0592 12.7809 63.951 12.7086C63.8428 12.6363 63.7585 12.5335 63.7087 12.4133C63.6589 12.2931 63.6459 12.1608 63.6713 12.0331C63.6966 11.9055 63.7593 11.7882 63.8513 11.6962C63.9433 11.6042 64.0606 11.5415 64.1882 11.5161C64.3159 11.4908 64.4482 11.5038 64.5684 11.5536C64.6886 11.6034 64.7914 11.6877 64.8637 11.7959C64.936 11.9041 64.9746 12.0314 64.9746 12.1615C64.9745 12.336 64.9052 12.5033 64.7818 12.6267C64.6584 12.7501 64.4911 12.8194 64.3166 12.8195ZM64.9535 9.64011L61.7952 12.7984C61.6951 12.8958 61.5611 12.9505 61.4215 12.9511C61.2821 12.9495 61.1484 12.8949 61.0478 12.7984C60.9491 12.699 60.8938 12.5647 60.8938 12.4247C60.8938 12.2847 60.9491 12.1503 61.0478 12.051L64.2061 8.89268C64.2552 8.8436 64.3134 8.80467 64.3775 8.77811C64.4417 8.75154 64.5104 8.73787 64.5798 8.73787C64.6492 8.73787 64.7179 8.75154 64.7821 8.7781C64.8462 8.80466 64.9044 8.84359 64.9535 8.89267C65.0026 8.94174 65.0415 9.00001 65.0681 9.06413C65.0947 9.12825 65.1083 9.19698 65.1083 9.26639C65.1083 9.33579 65.0947 9.40452 65.0681 9.46864C65.0415 9.53277 65.0026 9.59103 64.9535 9.64011Z" fill="black" fill-opacity="0.7"/>
<defs>
<linearGradient id="paint0_linear_323_6416" x1="74.0003" y1="10.8462" x2="4.51118e-08" y2="10.8462" gradientUnits="userSpaceOnUse">
<stop stop-color="#FFBEBF" stop-opacity="0.6"/>
<stop offset="1" stop-color="#FFBEBF"/>
</linearGradient>
<linearGradient id="paint1_linear_323_6416" x1="74.0013" y1="10.8462" x2="-0.00724261" y2="12.629" gradientUnits="userSpaceOnUse">
<stop stop-color="#FFF01D" stop-opacity="0.6"/>
<stop offset="1" stop-color="#FFF01D"/>
</linearGradient>
</defs>
</svg>
