<svg width="80" height="16" viewBox="0 0 80 16" fill="none" xmlns="http://www.w3.org/2000/svg">
<g clip-path="url(#clip0_87_9519)">
<path fill-rule="evenodd" clip-rule="evenodd" d="M65.684 -0.997478L70.9183 6.21094L61.6699 18.9473L63.1399 19.9398L66.5959 15.1804H77.4313L80.8797 19.9293L82.3497 18.9368L70.0111 1.94473H74.0153L72.7212 3.72695L73.8113 5.24247L77.7483 -0.179341L76.2784 -1.17185L75.2967 0.180021H68.7296L67.1539 -1.98999L65.684 -0.997478ZM76.1499 13.4157L72.0136 7.71937L67.8773 13.4157H76.1499Z" fill="#010101"/>
</g>
<g clip-path="url(#clip1_87_9519)">
<rect y="0.179443" width="9.77774" height="1.77777" fill="#010101"/>
<rect x="5.77734" y="1.95728" width="5.33332" height="1.77777" transform="rotate(90 5.77734 1.95728)" fill="#010101"/>
</g>
<g clip-path="url(#clip2_87_9519)">
<rect x="10.666" y="0.178955" width="9.77774" height="1.77777" fill="#010101"/>
<rect x="12.4434" y="0.178955" width="7.11109" height="1.77777" transform="rotate(90 12.4434 0.178955)" fill="#010101"/>
<rect x="10.666" y="5.5127" width="9.77774" height="1.77777" fill="#010101"/>
<rect x="10.666" y="2.84607" width="9.77774" height="1.77777" fill="#010101"/>
</g>
<g clip-path="url(#clip3_87_9519)">
<path d="M25.334 7.29005L23.1118 3.51104L23.1118 7.29005H21.334V0.178955H23.2408L26.2229 5.29005L29.0873 0.178955H31.1117V7.29005H29.334V3.30725L27.749 6.05249L27.1117 7.29005H25.334Z" fill="#010101"/>
</g>
<g clip-path="url(#clip4_87_9519)">
<rect x="33.7773" y="0.179199" width="7.11109" height="1.77777" transform="rotate(90 33.7773 0.179199)" fill="#010101"/>
<rect x="41.7754" y="0.179199" width="4.44443" height="1.77777" transform="rotate(90 41.7754 0.179199)" fill="#010101"/>
<rect x="41.7754" y="1.95728" width="9.77774" height="1.77777" transform="rotate(-180 41.7754 1.95728)" fill="#010101"/>
<rect x="41.7754" y="4.62341" width="9.77774" height="1.77777" transform="rotate(-180 41.7754 4.62341)" fill="#010101"/>
</g>
<g clip-path="url(#clip5_87_9519)">
<rect x="44.4434" y="0.179199" width="7.11109" height="1.77777" transform="rotate(90 44.4434 0.179199)" fill="#010101"/>
<rect x="52.4434" y="0.179199" width="7.11109" height="1.77777" transform="rotate(90 52.4434 0.179199)" fill="#010101"/>
<rect x="52.4434" y="7.29004" width="9.77774" height="1.77777" transform="rotate(-180 52.4434 7.29004)" fill="#010101"/>
</g>
<g clip-path="url(#clip6_87_9519)">
<rect x="55.1113" y="0.179199" width="4.44443" height="1.77777" transform="rotate(90 55.1113 0.179199)" fill="#010101"/>
<rect x="63.1113" y="2.84631" width="4.44443" height="1.77777" transform="rotate(90 63.1113 2.84631)" fill="#010101"/>
<rect x="63.1113" y="1.95728" width="9.77774" height="1.77777" transform="rotate(-180 63.1113 1.95728)" fill="#010101"/>
<rect x="63.1113" y="7.29004" width="9.77774" height="1.77777" transform="rotate(-180 63.1113 7.29004)" fill="#010101"/>
<rect x="63.1113" y="4.62341" width="9.77774" height="1.77777" transform="rotate(-180 63.1113 4.62341)" fill="#010101"/>
</g>
<g clip-path="url(#clip7_87_9519)">
<rect x="2.66797" y="12.1793" width="4.44443" height="1.77777" fill="#010101"/>
<path d="M5.85557 8.55109L1.09428 16.7979L-0.445312 15.909L3.80277 8.55109L4.82917 6.77332L5.85557 8.55109Z" fill="#010101"/>
<path d="M3.80277 8.55109L8.56406 16.7979L10.1037 15.909L5.85557 8.55109L4.82917 6.77332L3.80277 8.55109Z" fill="#010101"/>
</g>
<g clip-path="url(#clip8_87_9519)">
<rect x="12.4434" y="8.17969" width="7.11109" height="1.77777" transform="rotate(90 12.4434 8.17969)" fill="#010101"/>
<rect x="20.0879" y="12.5479" width="4.44443" height="1.77777" transform="rotate(135 20.0879 12.5479)" fill="#010101"/>
<rect x="20.4434" y="9.9574" width="9.77774" height="1.77777" transform="rotate(-180 20.4434 9.9574)" fill="#010101"/>
<path d="M20.4434 10.8453L20.4434 15.2898L18.6656 15.2898L18.6656 10.8453L20.4434 10.8453Z" fill="#010101"/>
<path d="M20.4434 10.8453L15.9989 10.8453L15.9989 12.6231L20.4434 12.6231L20.4434 10.8453Z" fill="#010101"/>
<rect x="16.8887" y="15.2906" width="6.2222" height="1.77777" transform="rotate(-180 16.8887 15.2906)" fill="#010101"/>
</g>
<g clip-path="url(#clip9_87_9519)">
<rect x="21.334" y="8.17969" width="9.77774" height="1.77777" fill="#010101"/>
<rect x="23.1113" y="8.17969" width="7.11109" height="1.77777" transform="rotate(90 23.1113 8.17969)" fill="#010101"/>
<rect x="21.334" y="13.5131" width="9.77774" height="1.77777" fill="#010101"/>
<rect x="21.334" y="10.8453" width="9.77774" height="1.77777" fill="#010101"/>
</g>
<g clip-path="url(#clip10_87_9519)">
<rect x="33.7773" y="8.17957" width="7.11109" height="1.77777" transform="rotate(90 33.7773 8.17957)" fill="#010101"/>
<rect x="32.3613" y="5.95251" width="14.5782" height="1.77777" transform="rotate(45 32.3613 5.95251)" fill="#010101"/>
<rect x="41.7754" y="8.17957" width="7.11109" height="1.77777" transform="rotate(90 41.7754 8.17957)" fill="#010101"/>
</g>
<g clip-path="url(#clip11_87_9519)">
<rect x="42.666" y="8.17944" width="9.77774" height="1.77777" fill="#010101"/>
<rect x="44.4434" y="8.17957" width="7.11109" height="1.77777" transform="rotate(90 44.4434 8.17957)" fill="#010101"/>
<rect x="42.666" y="13.5129" width="9.77774" height="1.77777" fill="#010101"/>
</g>
<g clip-path="url(#clip12_87_9519)">
<rect x="59.1113" y="11.2908" width="3.99999" height="1.77777" transform="rotate(90 59.1113 11.2908)" fill="#010101"/>
<rect x="63.1953" y="8.10303" width="6.42153" height="1.77777" transform="rotate(135 63.1953 8.10303)" fill="#010101"/>
<rect width="6.42153" height="1.77777" transform="matrix(0.707106 0.707107 0.707106 -0.707107 53.334 8.10303)" fill="#010101"/>
</g>
<defs>
<clipPath id="clip0_87_9519">
<rect width="15.9999" height="14.9998" fill="white" transform="translate(64 0.179443)"/>
</clipPath>
<clipPath id="clip1_87_9519">
<rect width="9.77774" height="7.11109" fill="white" transform="translate(0 0.179443)"/>
</clipPath>
<clipPath id="clip2_87_9519">
<rect width="9.77774" height="7.11109" fill="white" transform="translate(10.666 0.179199)"/>
</clipPath>
<clipPath id="clip3_87_9519">
<rect width="9.77774" height="7.11109" fill="white" transform="translate(21.334 0.179199)"/>
</clipPath>
<clipPath id="clip4_87_9519">
<rect width="9.77774" height="7.11109" fill="white" transform="translate(32 0.179443)"/>
</clipPath>
<clipPath id="clip5_87_9519">
<rect width="9.77774" height="7.11109" fill="white" transform="translate(42.666 0.179443)"/>
</clipPath>
<clipPath id="clip6_87_9519">
<rect width="9.77774" height="7.11109" fill="white" transform="translate(53.334 0.179443)"/>
</clipPath>
<clipPath id="clip7_87_9519">
<rect width="9.77774" height="7.11109" fill="white" transform="translate(0 8.17944)"/>
</clipPath>
<clipPath id="clip8_87_9519">
<rect width="9.77774" height="7.11109" fill="white" transform="translate(10.666 8.17957)"/>
</clipPath>
<clipPath id="clip9_87_9519">
<rect width="9.77774" height="7.11109" fill="white" transform="translate(21.334 8.17957)"/>
</clipPath>
<clipPath id="clip10_87_9519">
<rect width="9.77774" height="7.11109" fill="white" transform="translate(32 8.17944)"/>
</clipPath>
<clipPath id="clip11_87_9519">
<rect width="9.77774" height="7.11109" fill="white" transform="translate(42.666 8.17944)"/>
</clipPath>
<clipPath id="clip12_87_9519">
<rect width="9.77774" height="7.11109" fill="white" transform="translate(53.334 8.17944)"/>
</clipPath>
</defs>
</svg>
